<?xml version="1.0" encoding="UTF-8"?>
<svg id="_レイヤー_2" data-name="レイヤー 2" xmlns="http://www.w3.org/2000/svg" viewBox="0 0 988.2612039 75.3979456">
  <defs>
    <style>
      .cls-1 {
        fill: #231815;
      }

      .cls-1, .cls-2 {
        stroke-width: 0px;
      }

      .cls-2 {
        opacity: .1;
      }

      .cls-2, .cls-3 {
        fill: none;
      }

      .cls-3 {
        stroke: #231815;
        stroke-miterlimit: 10;
        stroke-width: .5px;
      }
    </style>
  </defs>
  <g id="_レイヤー_1-2" data-name="レイヤー 1">
    <g>
      <g>
        <path class="cls-1" d="m.6776503,10.9176092c.8656006-.1500244,1.5812988-.2824097,2.1459961-.3953247v-3.0496826h-1.7507324v-1.072998h1.7507324v-2.9931641H.7905653v-1.072998h5.0262451v1.072998h-1.8636475v2.9931641h1.5812988v1.072998h-1.5812988v2.8237915l1.807251-.5083008.2823486.960083c-1.6192627.52771-3.1625977.9794922-4.6309814,1.3554077-.112915.263855-.2259521.3203125-.3388672.1694336l-.3952637-1.3554077Zm9.4312744-1.4118652h-1.072998v.5646973c0,2.2969971-1.7701416,3.6514893-5.3087158,4.0662231l-.3952637-1.2424316c3.0496826-.2630005,4.5744629-1.2230225,4.5744629-2.880249v-.5082397h-1.5812988V1.8251409h6.5510254v7.680603h-1.6376953v2.9931641c0,.3017578.1314697.4517822.3952637.4517822h.3953857c.2258301,0,.3758545-.1129761.4517822-.3388672.0749512-.2258911.1500244-.6776733.2259521-1.3554077l1.1859131.3388672c-.0759277.52771-.1508789.9415283-.2259521,1.2424316-.1888428.7906494-.5646973,1.1859741-1.1293945,1.1859741h-1.4683838c-.640625,0-.960083-.3203125-.960083-.960022v-3.5579224Zm1.6378174-5.4216309v-1.3553467h-4.2921143v1.3553467h4.2921143Zm0,2.2590332v-1.3554077h-4.2921143v1.3554077h4.2921143Zm0,2.2589722v-1.3554077h-4.2921143v1.3554077h4.2921143Z"/>
        <path class="cls-1" d="m20.1050185,6.738471v7.5111694h-1.1295166v-6.2687378c-.52771.5647583-1.0166016.9979858-1.4683838,1.2989502l-.5646973-1.0166016c1.3924561-1.0535889,2.503418-2.4089966,3.3320312-4.0661621l1.072998.6212158c.1500244.1508789.0935059.2453003-.1694336.2823486l-1.072998,1.6378174Zm-2.1461182-1.3554077l-.5083008-1.0730591c1.0915527-.6397095,2.0701904-1.6748047,2.9367676-3.1060791l.847168.6776733c.1499023.1129761.112915.2258911-.1130371.3388672-1.0924072,1.5062866-2.1459961,2.560791-3.1625977,3.1625977Zm8.1324463,6.2122192c.9406738.6027222,2.2774658,1.0924683,4.0096436,1.4683838l-.5081787,1.2424316c-1.8452148-.4517822-3.3135986-1.0924683-4.4051514-1.920166-1.3182373.8656616-2.7106934,1.4868774-4.1790771,1.8637085l-.5646973-1.2424927c1.4682617-.2258911,2.7478027-.696228,3.84021-1.4118652-.8286133-1.0535889-1.4118652-2.0516357-1.7507324-2.9931641h-1.1295166v-1.072998h5.8734131l.2823486-.2824097.960083.7341919c.1500244.1508789.0936279.2453003-.1694336.2823486-.7155762,1.4313354-1.4682617,2.5413818-2.2589111,3.3320312Zm-5.1392822-5.1392212c1.0166016-.5647583,1.5249023-1.2424316,1.5249023-2.0330811V1.6557073h4.5744629v3.3320312c0,.263855.112915.3953247.3388672.3953247h.9599609c.1500244,0,.2259521-.0935669.2259521-.2824097v-1.072998l1.1295166.2823486v1.2424927c0,.6026611-.3017578.9035645-.9035645.9035645h-1.8637695c-.6776123,0-1.0164795-.3388062-1.0164795-1.0165405v-2.7107544h-2.3155518v1.5812378c0,1.2424927-.6776123,2.2590332-2.0330811,3.0496826l-.6212158-.9036255Zm5.9299316,2.1460571h-3.2756348c.3388672.8286133.8842773,1.600708,1.6378174,2.3154907.7147217-.6397705,1.2609863-1.4118652,1.6378174-2.3154907Z"/>
        <path class="cls-1" d="m42.5819472,11.8776922l-1.1295166,1.0165405c-1.4312744-1.6942749-3.0689697-3.2190552-4.913208-4.5744629l.7906494-1.0165405c.6776123.4147339,1.4302979.9979858,2.2589111,1.7506714,1.1295166-1.1294556,2.2775879-2.5219116,3.4449463-4.1791382l-8.8664551.3953247-.2259521-1.4118652,9.8830566-.2258911.5648193-.1694336.847168.9036255c.1878662.3017578.112915.4332275-.2259521.3953247-.9415283,1.2424316-2.3913574,2.9561157-4.3486328,5.1392212.7906494.75354,1.4304199,1.4118652,1.920166,1.9766235Z"/>
        <path class="cls-1" d="m58.8467177,11.8776922l-1.1295166,1.0165405c-1.4312744-1.6942749-3.0689697-3.2190552-4.913208-4.5744629l.7906494-1.0165405c.6776123.4147339,1.4302979.9979858,2.2589111,1.7506714,1.1295166-1.1294556,2.2775879-2.5219116,3.4449463-4.1791382l-8.8664551.3953247-.2259521-1.4118652,9.8830566-.2258911.5648193-.1694336.847168.9036255c.1878662.3017578.112915.4332275-.2259521.3953247-.9415283,1.2424316-2.3913574,2.9561157-4.3486328,5.1392212.7906494.75354,1.4304199,1.4118652,1.920166,1.9766235Z"/>
        <path class="cls-1" d="m70.5370253,11.9906072c-.4897461.4897461-.9979248.7341919-1.5247803.7341919-.6026611,0-1.072998-.1694336-1.4118652-.5083008-.9035645-.9035645-1.3554688-2.0330811-1.3554688-3.3884888,0-1.656311.583374-3.0681763,1.7507324-4.2355957,1.279541-1.279541,2.8422852-1.920166,4.6875-1.920166,1.65625,0,2.9552002.4712524,3.8967285,1.4118652,1.0535889,1.0545044,1.5812988,2.296936,1.5812988,3.727356,0,1.5442505-.4897461,2.8052368-1.4683838,3.7838135-.640625.640625-1.6192627,1.2618408-2.9366455,1.8637085l-1.1860352-1.1859741c1.3175049-.4138794,2.3525391-.9971313,3.1062012-1.7507324.7147217-.7147827,1.072998-1.5812988,1.072998-2.5978394,0-1.2045288-.3953857-2.2025146-1.1860352-2.9931641s-2.0330811-1.1480713-3.7272949-1.0730591l1.0166016.5083008c.4517822.1888428.4517822.3953247,0,.6212158-.640625,3.7652588-1.4118652,6.0993042-2.3155518,7.0028687Zm-1.5247803-6.6640015c-.9794922.9794312-1.4683838,2.18396-1.4683838,3.6143799,0,.8665161.2823486,1.5812988.847168,2.1460571.112915.112915.2823486.1693726.5083008.1693726.2258301,0,.4703369-.1314697.7341309-.3953247.8656006-.8656006,1.5053711-3.1810913,1.920166-6.9464111-.9794922.2259521-1.8266602.6971436-2.5413818,1.4119263Z"/>
        <path class="cls-1" d="m83.8086317,6.738471h9.7701416v4.1791382h-1.1293945v-.5083008h-7.5112305c.0750732,1.5442505-.52771,2.8608398-1.8071289,3.9532471l-.9036865-.9035645c1.0535889-.7147827,1.5812988-1.6942749,1.5812988-2.9367065v-3.7838135Zm11.0690918-4.0662231v1.0730591h-5.8168945v1.072998h4.6873779v1.072998h-10.3913574v-1.072998h4.5744629v-1.072998h-5.6474609v-1.0730591h5.6474609v-1.4683228h1.072998c.3009033.0379028.319458.1508789.0565186.3388672v1.1294556h5.8168945Zm-6.8334961,5.1392212h-3.1060791v1.5248413h3.1060791v-1.5248413Zm4.4051514,0h-3.2756348v1.5248413h3.2756348v-1.5248413Z"/>
        <path class="cls-1" d="m101.428871,6.3431463c-.8286133.112915-1.6378174.2073364-2.4284668.2823486l-.112915-1.2424316c.6776123,0,1.6182861-.0564575,2.8237305-.1694336.3388672-1.1665649.6212158-2.3525391.847168-3.5579224l1.1859131.3953247c.4517822.1888428.432373.3582764-.0565186.5083008-.2258301.7906494-.4517822,1.6377563-.6776123,2.5413208.4517822-.0749512.9221191-.112915,1.4118652-.112915.5267334,0,.9221191.1323853,1.1859131.3953247.4517822.4517822.6777344,1.4683228.6777344,3.0496216,0,2.184021-.3203125,3.5958862-.960083,4.2356567-.3768311.3759155-.8100586.5646973-1.2989502.5646973-.7155762,0-1.4312744-.4138184-2.1459961-1.2424316l.7341309-1.0165405c.6018066.6027222,1.0535889.9036255,1.3554688.9036255.1878662,0,.3572998-.0750122.5081787-.2259521.4139404-.4138184.6212158-1.5618286.6212158-3.4449463,0-1.0535889-.112915-1.6942139-.3387451-1.920166-.1130371-.112915-.3388672-.1693726-.6777344-.1693726s-.8100586.0379028-1.4118652.112915c-.7906494,2.7866821-1.7321777,5.1771851-2.8237305,7.1723022l-1.2989502-.4517822c1.0915527-1.6942749,2.0516357-3.8967896,2.880249-6.6075439Zm5.5345459-1.6942749l1.0164795-.7341919c1.543335,1.5812988,2.5979004,3.4829712,3.1625977,5.7039795l-1.2424316.5083008c-.6777344-2.4469604-1.6572266-4.2727051-2.9366455-5.4780884Z"/>
        <path class="cls-1" d="m119.2748183,12.4423894h1.3553467c1.8822021,0,3.0682373-.2443848,3.5579834-.7341309.4138184-.4138794.6212158-.8842163.6212158-1.4118652,0-.4518433-.1888428-.8656616-.5648193-1.2424927-.3388672-.3388062-.9035645-.5082397-1.6942139-.5082397-1.6572266,0-3.1625977.8100586-4.5179443,2.4284058l-1.1295166-.1129761.6212158-6.0427856,1.1859131.2258911c.3759766.1508789.3759766.3018188,0,.4517822l-.3952637,3.6708984c1.3173828-1.1295166,2.8237305-1.6942749,4.5179443-1.6942749,1.0166016,0,1.8256836.3018188,2.4284668.9036255.4887695.4897461.7341309,1.1295166.7341309,1.920166,0,.8665161-.3203125,1.6192017-.960083,2.2589722-.75354.7526855-2.18396,1.1295166-4.2921143,1.1295166h-1.0164795l-.4517822-1.2424927Zm3.6143799-9.4312744l-.5648193,1.1295166c-1.3553467-.5647583-2.7672119-1.0536499-4.2355957-1.4683838l.5083008-1.0165405c1.0535889.263855,2.4848633.7156372,4.2921143,1.3554077Z"/>
        <path class="cls-1" d="m134.4664687,4.1970892h2.5979004V1.3733587h1.072998c.3010254.0379028.3195801.1508789.0565186.3388062v2.4849243h4.6307373v1.072998h-4.6307373v2.5978394h3.9530029v1.0730591h-3.9530029v3.3320312h5.3651123v1.072998h-12.368042v-1.072998h5.8734131v-3.3320312h-3.7838135v-1.0730591h3.7838135v-2.5978394h-2.9366455c-.4519043,1.1674805-1.1295166,2.2025146-2.0332031,3.1061401l-.8470459-.9036255c1.3553467-1.3174438,2.1645508-3.0496216,2.4283447-5.1956787l1.1860352.2824097c.2259521.0758667.2064209.1888428-.0565186.3388062-.0379639.1888428-.1508789.6212158-.3388672,1.2989502Z"/>
        <path class="cls-1" d="m154.5150526,9.9010686c1.543457.3388062,3.0498047.8665161,4.5180664,1.5812988l-.6213379,1.2424316c-1.3933105-.8656616-2.6921387-1.4489136-3.8967285-1.7507324,0,.9794922-.2453613,1.7136841-.7341309,2.2025146-.4519043.4517822-1.1860352.6777344-2.2023926.6777344-.7907715,0-1.4313965-.2453613-1.920166-.7341919-.3388672-.3388672-.5083008-.8092041-.5083008-1.4118652,0-.5267944.1879883-.9786377.5646973-1.3554077.4887695-.4888916,1.2424316-.7341919,2.2590332-.7341919.3007812,0,.7712402.0194092,1.4118652.0565186v-1.7507324l-4.2922363.112915v-1.1294556l4.2922363-.1129761v-1.9766235l-5.3085938.1694336v-1.1295166l5.3085938-.1694336V1.4862737h1.0166016c.4138184.0759277.4516602.2258911.112793.4518433v1.6377563l4.6311035-.1694336v1.1295166l-4.6311035.1693726v2.0331421l3.6708984-.1129761v1.1295166l-3.6708984.112915v2.0331421Zm-2.4284668.7341309c-.753418,0-1.2802734.1509399-1.5812988.4518433-.1887207.1888428-.2822266.4332275-.2822266.7341309,0,.2258911.0935059.4332886.2822266.6212158.2631836.263855.6777344.3953247,1.2426758.3953247.4516602,0,.8276367-.1499634,1.1293945-.4517822.3388672-.3388672.4887695-.8841553.4516602-1.6377563-.4145508-.0750122-.8283691-.1129761-1.2424316-.1129761Z"/>
        <path class="cls-1" d="m171.4576796,5.4395208c-.640625,0-1.8830566.9230347-3.7272949,2.7672729v5.647522h-1.1296387v-4.6309814l-2.4848633,3.1061401-.9035645-.9036255,2.2590332-2.6542969c.4138184-.5267944.7907715-1.072998,1.1293945-1.6377563v-1.3554077l-2.4848633.8471069-.3388672-1.1859741,2.8237305-.7341919V1.3733587h1.0166016c.3388672.0758667.3759766.2258911.1130371.4517822v2.5413818l.6210938.3388062c.3388672.1509399.3010254.3203735-.112793.5083008l-.5083008,1.072998v.3953247c1.7692871-1.65625,3.1062012-2.4848633,4.0097656-2.4848633,1.1293945,0,1.6376953.7536011,1.5246582,2.2589722l-.2822266,4.3485718c-.0380859.6027222.1879883.9036255.6777344.9036255.4887695,0,.8469238-.1314697,1.072998-.3953247.3388672-.4138794.6210938-.9036255.847168-1.4683838l.9599609.7906494c-.376709.7156372-.7341309,1.2424927-1.072998,1.5812988-.4897461.4897461-1.0544434.7341919-1.6943359.7341919-1.3933105,0-2.0524902-.7147827-1.9765625-2.1460571l.2824707-4.2920532c.0368652-.7147827-.1694336-1.0730591-.6213379-1.0730591Z"/>
        <path class="cls-1" d="m181.96183,13.571906l-1.2424316-.3953247c1.0166016-2.3719482,1.7314453-4.8568115,2.1459961-7.4546509-.9035645.0758667-1.713623.112915-2.4282227.112915l-.2260742-1.1295166c1.0537109,0,1.9953613-.0370483,2.8237305-.112915.1501465-1.1665649.2824707-2.1831055.3955078-3.0496216l1.1293945.2258911c.4138184.112915.4519043.2637939.1130371.4517822-.1130371.4517822-.263916,1.2053833-.4519043,2.2589722.8657227-.112915,1.65625-.2629395,2.3720703-.4517822l.2258301,1.1295166c-.9794922.1888428-1.9016113.3388062-2.767334.4517822-.5646973,3.3514404-1.2617188,6.0057373-2.0895996,7.9629517Zm9.8833008-1.3554077v1.2424927h-2.4851074c-1.4311523,0-2.7866211-.3388672-4.0661621-1.0166016l.5083008-1.0165405c.9787598.52771,2.1645508.7906494,3.5578613.7906494h2.4851074Zm-.2824707-4.6873779c-2.184082.0758667-3.8967285.37677-5.1391602.9035645l-.3388672-1.1294556c1.6184082-.6397705,3.3691406-.960083,5.2521973-.960083l.2258301,1.1859741Z"/>
        <path class="cls-1" d="m10.0524062,31.5925359l-1.1295166,1.0165405c-1.4312744-1.6942749-3.0689697-3.2190552-4.913208-4.5744629l.7906494-1.0165405c.6776123.4147339,1.4302979.9979858,2.2589111,1.7506714,1.1295166-1.1294556,2.2775879-2.5219116,3.4449463-4.1791382l-8.8664551.3953247-.2259521-1.4118652,9.8830566-.2258911.5648193-.1694336.847168.9036255c.1878662.3017578.112915.4332275-.2259521.3953247-.9415283,1.2424316-2.3913574,2.9561157-4.3486328,5.1392212.7906494.75354,1.4304199,1.4118652,1.920166,1.9766235Z"/>
        <path class="cls-1" d="m26.3171767,31.5925359l-1.1295166,1.0165405c-1.4312744-1.6942749-3.0689697-3.2190552-4.913208-4.5744629l.7906494-1.0165405c.6776123.4147339,1.4302979.9979858,2.2589111,1.7506714,1.1295166-1.1294556,2.2775879-2.5219116,3.4449463-4.1791382l-8.8664551.3953247-.2259521-1.4118652,9.8830566-.2258911.5648193-.1694336.847168.9036255c.1878662.3017578.112915.4332275-.2259521.3953247-.9415283,1.2424316-2.3913574,2.9561157-4.3486328,5.1392212.7906494.75354,1.4304199,1.4118652,1.920166,1.9766235Z"/>
        <path class="cls-1" d="m34.3931044,33.0608587c-.112915-1.9572144-.1694336-3.6329346-.1694336-5.0262451,0-1.6942749.206543-3.7079468.6212158-6.0428467l1.1295166.2824097c.4138184.0758667.432373.2453003.0565186.5082397-.3768311,2.184021-.5648193,3.9347534-.5648193,5.2521973,0,1.4683228.0750732,3.1060791.2259521,4.913269l-1.2989502.1129761Zm8.0759277-1.072998c-1.7701416,0-3.2385254-.5647583-4.4050293-1.6942749l.7341309-.960083c1.0166016.9794922,2.239624,1.4498291,3.6708984,1.4118652h3.1060791v1.2424927h-3.1060791Zm2.3719482-7.2852783c-1.6192627-.0370483-3.7272949.0758667-6.3251953.3388672v-1.1859741c2.7108154-.2630005,4.8188477-.3759155,6.3251953-.3388672v1.1859741Z"/>
        <path class="cls-1" d="m52.4086073,22.104743h1.1860352c.3758545.0758667.4138184.2258911.112915.4517822,0,.6027222.112915,1.4683228.3388672,2.5978394l2.8237305-1.0165405.112915-2.5978394h1.072998c.4139404.0758667.4517822.2258911.1130371.4517822l-.1694336,1.920166c.3388672-.0750122.6776123-.1129761,1.0164795-.1129761,1.0915527,0,1.920166.2824097,2.4849854.847168.6018066.6026611.9035645,1.3747559.9035645,2.3154297,0,.9036255-.2259521,1.5812988-.6777344,2.0331421-.5646973.5646973-1.2989502.8471069-2.2025146.8471069-1.2053223,0-2.1654053-.319458-2.880249-.960083l.5083008-1.072998c.8277588.5646973,1.5812988.8471069,2.2590332.8471069.6018066,0,1.0915527-.1879883,1.4682617-.5647583.2259521-.2258911.3388672-.6018066.3388672-1.1295166,0-.6018066-.1888428-1.0915527-.5646973-1.4683228-.4147949-.4138794-.960083-.6212158-1.6378174-.6212158-.75354,0-1.5062256.1508789-2.2589111.4517822l-2.4284668.960083c.6397705,2.4478149,1.4489746,4.6688843,2.4284668,6.6640015l-1.2989502.5083008c-.8665771-2.0330811-1.6192627-4.2727051-2.2590332-6.72052l-2.7108154,1.1295166-.6212158-1.1295166,3.0496826-1.1859741c-.1888428-.8276978-.3582764-1.9766235-.5083008-3.4449463Z"/>
        <path class="cls-1" d="m67.8827284,25.3237981l-.3388672-1.1295166c1.8442383,0,3.3320312-.0370483,4.4615479-.112915-.3768311-1.0536499-.640625-2.0330811-.7906494-2.9367065h1.2424316c.3388672.0758667.3759766.2258911.112915.4517822.1500244.7156372.3759766,1.5062866.6777344,2.3719482,1.3175049-.112915,2.4470215-.2823486,3.3885498-.5082397l.2823486,1.2424316c-1.0924072.1508789-2.1655273.263855-3.2191162.3388672.7526855,1.4312744,1.9007568,2.6737061,3.4449463,3.7272949l-.8470459,1.0165405c-1.3933105-.6397095-2.767334-.960022-4.1226807-.960022-1.2424316,0-2.1090088.2453003-2.5979004.7341309-.2258301.2258911-.3387451.5462646-.3387451.960083,0,.3768311.1693115.7341919.5081787,1.0730591.5268555.5276489,1.7692871.7906494,3.727417.7906494h1.9765625l-.2823486,1.2424316h-2.1459961c-1.9581299,0-3.3320312-.3953247-4.1226807-1.1859741-.5648193-.5647583-.847168-1.2045288-.847168-1.920166,0-.7147217.206543-1.27948.6212158-1.6942139.6777344-.6777344,1.7313232-1.0165405,3.1625977-1.0165405,1.4304199,0,2.2590332.0758667,2.4848633.2258911-.9035645-1.1295166-1.5247803-2.0895996-1.8636475-2.880249-1.5441895.1129761-3.0690918.1694336-4.5744629.1694336Z"/>
        <path class="cls-1" d="m88.8348769,33.2867498c-1.3553467,0-2.3533936-.3203125-2.9931641-.960083-.4897461-.4888306-.7341309-1.4303589-.7341309-2.8237305v-7.567627h1.1860352c.3387451.0758667.3758545.2258911.112915.4517822v7.1158447c0,.9415283.1694336,1.5812988.5083008,1.920166.4138184.4147339,1.0350342.6212158,1.8636475.6212158,1.4682617,0,2.9552002-.8276978,4.4615479-2.4849243l.8470459,1.0730591c-1.6192627,1.7701416-3.3699951,2.6542969-5.2521973,2.6542969Z"/>
        <path class="cls-1" d="m103.6313857,31.818427c-.52771.640625-1.0545654.960083-1.5812988.960083-.9415283,0-1.6378174-.5453491-2.0895996-1.6378174-.2637939-.6397095-.3953857-2.0136719-.3953857-4.1226196,0-1.5054321.0750732-3.0302734.2259521-4.5744629l1.1860352.2823486c.4517822.112915.4702148.3017578.0563965.5647583-.1508789,1.3933105-.2258301,2.6542969-.2258301,3.7838135,0,1.5442505.0935059,2.6358032.2823486,3.2755127.1879883.640686.4703369.960083.8470459.960083.4139404,0,.7712402-.3009033,1.0731201-.9035645.1878662-.3759155.3758545-.8277588.5646973-1.3554077l1.1295166.7906494c-.3388672.8665161-.6971436,1.5247803-1.072998,1.9766235Zm7.5111084-2.1460571l-1.5247803.3953247c-.4517822-2.6348877-1.3748779-4.687439-2.767334-6.1557617l1.1860352-.6777344c1.6942139,1.7701416,2.729248,3.9161987,3.1060791,6.4381714Z"/>
        <path class="cls-1" d="m115.4910048,27.5827703l-.9036865-1.072998c1.9572754-1.3554077,3.3885498-3.1061401,4.2921143-5.2521362l1.072998.6776733c.2259521.1508789.1879883.2453003-.112915.2823486-.9035645,1.9581299-2.3533936,3.7467651-4.3485107,5.3651123Zm9.4312744-.9035645l-.2259521,4.5744629c-.0758057,1.5812988-.6212158,2.3719482-1.6376953,2.3719482h-1.6943359l-.1694336-1.2424316h1.4119873c.4887695,0,.7526855-.319458.7906494-.960083l.2258301-3.6708984h-3.1060791l-.0565186.4518433c-.2637939,2.0709839-1.7507324,3.9726562-4.4615479,5.7039185l-.8470459-1.072998c2.4468994-1.3924561,3.8023682-2.8608398,4.0661621-4.4050293l.112915-.6777344h-2.1459961v-1.072998h7.7370605Zm1.920166.9035645c-2.0710449-1.2044678-3.5959473-3.1810913-4.5744629-5.9298096l1.072998-.4518433c.9035645,2.4099121,2.3525391,4.1420898,4.3485107,5.1956787l-.8470459,1.1859741Z"/>
        <path class="cls-1" d="m135.031288,23.2341985v1.0730591h-4.2355957v-1.0730591h4.2355957Zm-.2259521,10.3914185h-.960083v-.5647583h-1.6376953v.6776733h-.960083v-4.5179443h3.5578613v4.4050293Zm-3.4449463-11.2949829v-1.072998h3.1625977v1.072998h-3.1625977Zm3.1625977,3.9532471h-3.1625977v-1.0730591h3.1625977v1.0730591Zm0,1.920166h-3.1625977v-1.0730591h3.1625977v1.0730591Zm-.6777344,3.953186v-2.0330811h-1.6376953v2.0330811h1.6376953Zm9.4315186,1.5812988c-1.9584961-.75354-3.2387695-2.0895386-3.840332-4.0097046l-.734375.7906494v2.0330811l1.6943359-.3388062.112793.8471069-3.5577393.8471069c-.0379639.2630005-.1324463.319458-.2824707.1694336l-.3387451-1.2424316,1.4118652-.1129761v-1.5247803c-1.0545654.6026611-1.8452148.960022-2.3719482,1.072998l-.3953857-1.0165405c1.2424316-.3009033,2.2775879-.8276978,3.1062012-1.5812988h-2.6544189v-.9036255h2.4849854v-.7341309h-1.7507324v-.9036255h1.7507324v-.7341919h-2.0895996v-.9035645h2.0895996v-.7906494h.9035645c.3010254.0379639.3195801.1508789.0563965.3388672v.4517822h1.2426758v-.7341919h.9033203c.3007812.0379639.3193359.1508789.0566406.3388672v.3953247h2.0893555v.9035645h-2.0893555v.7341919h1.7504883v.9036255h-1.7504883v.7341309h2.7109375v.9036255h-3.3886719c.0751953.37677.3007812.7906494.6777344,1.2424316l1.2988281-1.1295166.7905273.7906494c.0371094.1888428-.0561523.2453613-.2822266.1694336l-1.2988281.7341919c.8276367.5647583,1.5620117.9415283,2.2026367,1.1295166l-.5083008,1.1294556Zm-7.6807861-9.3183594c1.166626-.4517822,1.9572754-.8656006,2.3719482-1.2424316h-2.2589111v-.9035645h3.1624756v-1.4683838h1.0732422c.3007812.0379639.3193359.1508789.0561523.3388672v1.1295166h3.3886719v.9035645h-2.7670898c.7143555.3768311,1.6376953.6591797,2.7670898.8471069l-.3388672.960083c-1.1674805-.1879272-2.184082-.5647583-3.0498047-1.1294556l.4521484-.6777344h-2.3156738l.6213379.6212158c.1499023.1509399.0749512.2258911-.2260742.2258911-.9414062.6027222-1.7506104.9980469-2.4283447,1.1859741l-.5083008-.7906494Zm4.5181885,2.7108154v-.7341919h-1.2426758v.7341919h1.2426758Zm0,1.6377563v-.7341309h-1.2426758v.7341309h1.2426758Z"/>
        <path class="cls-1" d="m151.6913222,30.8018865l-3.7836914,1.3553467c-.0380859.263855-.1323242.3203735-.2824707.1694336l-.4519043-1.2988892,1.7507324-.5083008v-4.5744629h-1.6376953v-1.072998h1.6376953v-3.1625977h1.0732422c.3007812.0379028.3193359.1508789.0563965.3388672v2.8237305h1.4682617v1.072998h-1.4682617v4.2921143l1.6376953-.5647583v1.1295166Zm6.9465332,1.072998l.3388672-1.1859741,1.2424316.3953247-.2824707,1.072998c-.2258301.9036255-.7722168,1.3554077-1.6376953,1.3554077h-4.6875c-.6777344,0-1.0166016-.3203125-1.0166016-.960083v-5.3651123l-1.4682617.5647583-.3388672-1.1294556,1.8071289-.6212769v-3.2190552h1.072998c.3010254.0379639.3195801.1508789.0566406.3388672v2.4848633l1.3552246-.5082397v-3.840271h1.0732422c.3007812.0379028.3193359.1508789.0563965.3388062v3.1061401l1.920166-.7341919.112793-.2258911,1.1860352.7906494-.2258301.1694336v4.2921143c0,.6026611-.3017578.9035645-.9035645.9035645h-1.1296387l-.2822266-1.072998h.9599609c.1501465,0,.2258301-.0750122.2258301-.2258911v-3.3885498l-1.8635254.6777344v4.8568115h-1.1296387v-4.4614868l-1.3552246.5082397v5.1957397c0,.3017578.1313477.4517822.3952637.4517822h3.7839355c.3757324,0,.6210938-.1879883.7341309-.5647583Z"/>
        <path class="cls-1" d="m168.0128554,31.9313421c0,.5647583-.1889648,1.0350952-.5649414,1.4118652-.376709.3759155-.847168.5647583-1.4118652.5647583s-1.0358887-.1888428-1.4118652-.5647583c-.376709-.37677-.5646973-.8471069-.5646973-1.4118652s.1879883-1.0350342.5646973-1.4118652c.3759766-.3759155.847168-.5647583,1.4118652-.5647583s1.0351562.1888428,1.4118652.5647583c.3759766.3768311.5649414.8471069.5649414,1.4118652Zm-.6777344,0c0-.3388062-.1325684-.6397095-.3955078-.9035645-.2636719-.2630005-.5646973-.3953247-.9035645-.3953247s-.640625.1323242-.9035645.3953247c-.263916.263855-.3952637.5647583-.3952637.9035645,0,.3388672.1313477.640625.3952637.9036255.2629395.2629395.5646973.3953247.9035645.3953247s.6398926-.1323853.9035645-.3953247c.2629395-.2630005.3955078-.5647583.3955078-.9036255Z"/>
      </g>
      <g>
        <path class="cls-1" d="m299.6925429,16.1234197l-3.7202148.0827026-.220459-.1929321v-3.251709l.220459-.1929321,3.7202148.0827026h2.5078125v-6.5587158l.1928711-.1928711h3.5825195l.1928711.1928711v15.84552l.1376953,9.2592773h-4.2438965l.0827637-5.2359009c-1.515625.7164917-3.03125,1.3503418-5.4013672,2.2597046l-.2480469-.1102295-1.295166-3.3619995.1103516-.2755737c2.7282715-.8267212,4.6020508-1.4880981,6.8894043-2.4250488v-5.9248657h-2.5078125Zm13.0622559-1.9289551c1.9289551-.9920654,3.7753906-2.177063,5.3186035-3.4998169h.3029785l2.4802246,2.5352783-.0275879.2755737c-2.8383789,1.8463135-5.2634277,3.2242432-8.0742188,4.3265381v8.4876709c0,.7164307.1376953.854248,1.3503418.854248,1.515625,0,2.0117188-.0551147,2.4526367-.440918.4682617-.3858032.6611328-.9920654.7714844-3.3895264l3.3620605,1.4329834c.3029785.1377563.3029785.220459.3029785.5511475-.0825195,2.4525757-.4133301,3.692627-1.3227539,4.4367065-1.1022949.9369507-1.8186035,1.0747681-6.0900879,1.0747681-4.105957,0-4.9328613-.7165527-4.9328613-2.7833252l.0827637-6.1452637V6.0374822l.1928711-.220459h3.6101074l.220459.2479858v8.1294556Z"/>
        <path class="cls-1" d="m338.7052382,27.5872869c1.956543-1.6809692,3.03125-3.6375732,3.5546875-6.4759521.3308105-1.7085571.440918-3.7753906.4135742-6.3106689-.440918.9370117-.9094238,1.7912598-1.4055176,2.5628662-.1376953.1928711-.3032227.2755737-.4685059.2755737-.1101074,0-.2480469-.0275269-.3581543-.1102295l-2.4526367-1.6534424c1.8464355-2.8108521,3.251709-6.7515259,3.9406738-10.4993286l.2756348-.1378174,3.3620605.9644775.0549316.2756348c-.3305664,1.2675781-.7165527,2.5628052-1.1574707,3.8580322h4.8776855l1.6535645-.1378174,1.2124023,1.1022949c.1655273.1378174.2756348.2755737.2756348.4960327,0,.1102295-.0275879.2479858-.0827637.440918-.6887207,2.3699341-1.4328613,4.3816528-2.177002,6.0350952-.1376953.2755127-.2753906.4133301-.4685059.4133301-.1101074,0-.2478027-.0551147-.3857422-.1102295l-2.7280273-1.1849365c.6889648-1.1298828,1.3500977-2.7557373,1.6533203-3.8305054h-5.0429688c-.1928711.4133911-.3581543.7716064-.5512695,1.1849976l.1379395-.1654053h3.3068848l.220459.1929321c0,1.3227539-.0275879,2.5352783-.0827637,3.6651001,1.1298828,4.6572266,3.2792969,7.4405518,6.3383789,9.7553711l-2.2597656,2.9486084c-.1655273.220459-.3308105.3306885-.4685059.3306885-.1379395,0-.2480469-.0826416-.3857422-.220459-2.177002-2.2045898-3.6101074-4.3540649-4.4367676-7.0270996-.9921875,3.1966553-2.8110352,5.4012451-5.8974609,7.3302002-.1101074.0827026-.2202148.1378174-.3305664.1378174-.0827637,0-.1652832-.0551147-.2756348-.1653442l-2.1494141-2.3148193c.2756348-.1653442.5510254-.3582153.8266602-.5236206l-2.2321777-.0550537h-4.2988281v1.5707397h-3.7753906l.1376953-10.3064575v-9.0388184l-.0825195-3.8304443.1652832-.1654053,4.1611328.0827026h4.1335449l3.5825195-.0827026.1652832.1378174v3.1966553l-.1928711.1928711-3.5549316-.0826416h-4.7397461v2.4801636l2.0668945-1.1574097.2753906.0551147c.6064453.8267212,1.2126465,1.7085571,1.8188477,2.6730347.3857422-1.1022949.7441406-2.2872314,1.0471191-3.5548706l.220459-.0551147,2.7558594,1.2401123.1101074.2479858c-.6889648,2.1218872-1.3503418,3.8855591-2.0666504,5.4563599.9367676,1.6258545,1.8461914,3.2792969,2.590332,4.7949829l-.0827637.2479858-2.7280273,1.5708008-.220459-.0826416c-.3859863-.9370117-.8544922-1.9841309-1.4055176-3.0588989-.661377,1.0471802-1.3779297,2.0392456-2.1218262,3.0037231-.1655273.220459-.3308105.3031616-.4960938.3031616-.1376953,0-.3032227-.0827026-.440918-.220459l-1.3227539-1.3502808v2.3974609h4.2988281l3.5825195-.0826416.1103516.1377563v2.2321167Zm-7.9916992-5.8696899c.9919434-1.1849976,1.9013672-2.4525757,2.6179199-3.8305054-.854248-1.4329834-1.6809082-2.8659668-2.6179199-4.2437744v8.0742798Z"/>
        <path class="cls-1" d="m367.6317519,14.0566473c-.9094238.1378174-1.7912598.220459-2.6455078.3031006-.3581543.0275879-.5510254-.0826416-.6337891-.220459l-1.3779297-2.3423462v4.7123413c0,6.2003784-.9645996,10.8851318-3.1691895,14.6880493-.1101074.1653442-.1928711.2755737-.3029785.2755737-.1103516,0-.220459-.0826416-.3857422-.220459l-2.4802246-2.177002c1.8737793-3.4998169,2.5078125-6.723999,2.5078125-12.4008789v-7.0546875l-.0827637-3.1966553.1928711-.1928711,3.5273438.0826416h13.3103027l3.6650391-.0826416.1928711.1928711-.0825195,3.2242432c-.0551758,2.177002-.0827637,4.1060791-.0827637,5.869751,0,3.5823975.1376953,6.4208374.440918,8.9836426.1928711,1.5708008.3581543,2.0117188.6062012,2.0117188.220459,0,.440918-.7991943.7441406-3.25177l1.8461914,2.0116577c.3583984.3858643.3859863.5236206.3308105,1.0196533-.440918,3.9958496-1.295166,5.2910156-3.03125,5.2910156-1.4331055,0-3.279541-1.3778687-4.0786133-5.9523926-.661377-3.7753906-.661377-8.6530151-.661377-16.0108643h-13.0070801v1.9841309c4.1062012-.220459,7.4956055-.8266602,9.9758301-1.4605103l.2756348.0275269c1.1572266.8543091,1.8461914,1.4605713,2.6455078,2.2597656l-.0827637.2755127c-1.5708008.3031616-3.0864258.5787354-4.546875.8267822v2.0667725h1.2124023l2.7006836-.0826416.1928711.1928711-.0827637,2.3148193v2.8659668l.0827637,2.4250488-.220459.2480469-2.8659668-.0827026h-1.0195312v2.7282104c.3857422-.0551758.7438965-.1102295,1.1298828-.1654053-.1655273-.3582153-.3308105-.661377-.4960938-.9920654l.0551758-.220459,2.5351562-1.074707.3305664.0826416c.9094238,1.6534424,1.8188477,3.692749,2.5078125,5.5666504l-.0825195.2755127-2.7006836,1.2125244-.3308105-.0550537c-.220459-.6338501-.4133301-1.2677002-.6337891-1.8739014-3.03125.6062012-6.4208984,1.1849365-10.2512207,1.736084l-.2480469-.0826416-1.1850586-3.2793579.1928711-.2479858c2.0668945-.1102295,3.8857422-.2756348,5.5666504-.440918v-3.1691284h-.8818359l-2.9211426.0827026-.1928711-.220459.1376953-2.5352783v-2.7833252l-.0825195-2.3148193.1928711-.1928711,2.7006836.0826416h1.0471191v-1.5432129Zm-.854248,4.1611328v2.6455078h1.074707v-2.6455078h-1.074707Zm4.2438965,2.6455078h1.1022949v-2.6455078h-1.1022949v2.6455078Z"/>
        <path class="cls-1" d="m392.8390273,16.4541082c-.1103516.3306885-.220459.6338501-.220459,1.0196533,0,.6062622.5510254.6889648,2.0944824.6889648.2202148-1.5432129.3857422-2.6730957.5510254-3.8305054-1.9289551-.1102295-3.5549316-.2479858-5.0429688-.440918l-.1652832-.2479858.220459-3.1966553.220459-.1654053c1.7084961.2480469,3.3894043.4133911,5.3183594.4685059.2207031-1.515625.440918-3.0588379.6064453-4.4367676l.2480469-.1377563,3.8303223.440918.1928711.2479858c-.1652832,1.1574707-.3857422,2.4802246-.6337891,3.8305054,1.2678223-.0551147,2.5078125-.1929321,3.8029785-.3582153l.220459.1652832.220459,3.2518311-.2480469.220459c-1.4052734.1652832-3.0036621.2755127-4.6296387.3306885-.220459,1.295166-.4133301,2.590332-.5786133,3.8028564,1.7912598-.1102295,3.7202148-.3582153,5.6767578-.7164307l.2480469.1652832.3581543,3.2242432-.1652832.220459c-2.369873.3858032-4.546875.6337891-6.5585938.7991943-.1379395,1.074707-.2756348,1.956543-.2756348,3.0864258,0,1.3778076.6337891,1.9014282,2.7282715,1.9014282,3.692627,0,4.7121582-.7164917,4.7121582-1.8463745,0-.5786743-.2753906-1.4605103-1.5708008-2.8659668l3.2792969-1.1022949c.2756348-.0826416.4960938.0275879.6064453.1654053,2.0117188,2.1218872,2.3422852,3.4171143,2.3422852,4.6846924,0,2.7557373-2.2597656,4.7950439-9.3417969,4.7950439-5.4013672,0-6.9445801-2.177063-6.9445801-4.987915,0-1.5708008.1376953-2.6730957.2756348-3.8304443-3.6652832-.1929321-5.1809082-.9094238-5.1809082-3.1140137,0-.661377.1103516-1.3503418.4960938-2.2321777l.220459-.1102295,2.9487305-.1102295.1376953.220459Z"/>
        <path class="cls-1" d="m418.6796034,23.3435125c2.177002,1.4880371,3.9682617,3.1139526,5.7319336,5.428772v.220459l-2.8383789,2.5628052h-.2480469c-1.7636719-2.4525757-3.8303223-4.5194092-5.5939941-5.7319336v-.2479858l2.6728516-2.2045898.2756348-.0275269Z"/>
        <path class="cls-1" d="m433.2255019,18.3555975l1.4880371-3.4171143.2480469-.1102295c1.6811523.854248,3.5825195,1.4329834,5.6494141,1.8463135l.1376953.220459-1.1298828,3.6651611-.2480469.1378174c-2.2045898-.3858643-3.9682617-.9645386-6.0625-2.0943604l-.0827637-.2480469Zm22.5144043-1.8463135c.0551758.1928711.0827637.3306885.0827637.440918,0,.1928711-.0827637.3306885-.3032227.5786743-4.1611328,4.7949829-11.1606445,9.121521-18.1328125,11.711853l-.3029785-.0550537-2.3425293-3.7202759.0827637-.3031616c7.5507812-2.4525757,14.3850098-6.6964111,19.6760254-13.0621338l1.2399902,4.4091797Zm-19.6760254-4.9052734l2.2321777-2.9761963.3308105-.0550537c1.8186035.7440186,3.4997559,1.6809692,5.2634277,2.9486084l.0551758.3031006-2.2873535,3.1416016-.3032227.0550537c-1.9289551-1.4880371-3.2792969-2.2596436-5.2358398-3.1414795l-.0551758-.2756348Z"/>
        <path class="cls-1" d="m461.6026991,12.8717107l2.6730957-3.0037842.2756348-.0551147c1.6535645.8267212,3.8581543,2.2872925,5.5942383,3.8029175v.2755737l-2.8659668,3.3344116-.2480469.0275879c-1.6535645-1.5983276-3.4997559-2.9486084-5.4013672-4.133606l-.0275879-.2479858Zm21.3571777,2.2872314c.0825195.220459.1101074.3858032.1101074.5235596,0,.1929321-.0825195.3031616-.2756348.4960938-4.9050293,5.4012451-10.8850098,9.4245605-18.1601562,12.7314453l-.2756348-.0550537-2.4802246-3.7202759.0551758-.2755737c6.8342285-2.6179199,13.888916-7.4680176,19.510498-14.0267334l1.5158691,4.3265381Z"/>
        <path class="cls-1" d="m507.4505995,9.6750555c-.3308105-.4685059-.5512695-1.0472412-.5512695-1.6534424,0-1.5432129,1.2678223-2.8109131,2.8110352-2.8109131,1.515625,0,2.7832031,1.2677002,2.7832031,2.8109131,0,1.515625-1.2675781,2.7832642-2.7832031,2.7832642-.4960938,0-.9370117-.1377563-1.3503418-.3306885-.4133301,4.767395-1.956543,9.0663452-4.8500977,12.7039185-2.177002,2.7833252-5.2910156,4.8776855-9.4797363,6.723999-.2480469.1102295-.3859863.1654053-.5236816.1654053-.1652832,0-.3032227-.0827026-.5786133-.3031616l-3.3620605-2.7006226c4.7124023-1.5708008,7.7712402-3.472229,10.0310059-6.2004395,1.7636719-2.1494141,2.9208984-4.4918213,3.472168-7.1924438h-9.342041l-4.2163086.0827026-.2480469-.1654053v-3.8028564l.220459-.1929321,4.1887207.0827026h13.7788086Zm.9919434-1.6534424c0,.6889038.5788574,1.2400513,1.2678223,1.2400513.6887207,0,1.2399902-.5511475,1.2399902-1.2400513,0-.7165527-.5512695-1.2677002-1.2399902-1.2677002-.6889648,0-1.2678223.5511475-1.2678223,1.2677002Z"/>
        <path class="cls-1" d="m513.7267226,26.2370061c3.6928711-3.1691284,5.7595215-7.8538208,5.9526367-14.0266724l.2478027-.1929321,3.8857422.3306885.220459.220459c-.3032227,6.5586548-2.5354004,11.5189819-5.7595215,15.1014404-.2756348.2755737-.4133301.3858032-.6062012.3858032-.1103516,0-.2480469-.0275879-.440918-.1378174l-3.5-1.6809692Zm16.2866211-5.0154419c3.3068848-2.2321777,6.2553711-5.0154419,8.4875488-7.8538818l1.2126465,4.0509644c.0825195.2755737.1376953.4684448.1376953.6062622,0,.1928711-.0827637.3031006-.2480469.4960327-2.6730957,2.9486694-5.6767578,5.5665894-10.416748,8.5703735-.3029785.1928711-.4685059.2755127-.6337891.2755127-.1376953,0-.2480469-.0826416-.440918-.220459l-2.6730957-2.1494141.220459-3.1140137v-11.8496704l.220459-.1929321h3.9133301l.220459.220459v11.1607666Z"/>
        <path class="cls-1" d="m549.5709608,16.4541082c-.1103516.3306885-.220459.6338501-.220459,1.0196533,0,.6062622.5510254.6889648,2.0944824.6889648.2202148-1.5432129.3857422-2.6730957.5510254-3.8305054-1.9289551-.1102295-3.5549316-.2479858-5.0429688-.440918l-.1652832-.2479858.220459-3.1966553.220459-.1654053c1.7084961.2480469,3.3894043.4133911,5.3183594.4685059.2207031-1.515625.440918-3.0588379.6064453-4.4367676l.2480469-.1377563,3.8303223.440918.1928711.2479858c-.1652832,1.1574707-.3857422,2.4802246-.6337891,3.8305054,1.2678223-.0551147,2.5078125-.1929321,3.8029785-.3582153l.220459.1652832.220459,3.2518311-.2480469.220459c-1.4052734.1652832-3.0036621.2755127-4.6296387.3306885-.220459,1.295166-.4133301,2.590332-.5786133,3.8028564,1.7912598-.1102295,3.7202148-.3582153,5.6767578-.7164307l.2480469.1652832.3581543,3.2242432-.1652832.220459c-2.369873.3858032-4.546875.6337891-6.5585938.7991943-.1379395,1.074707-.2756348,1.956543-.2756348,3.0864258,0,1.3778076.6337891,1.9014282,2.7282715,1.9014282,3.692627,0,4.7121582-.7164917,4.7121582-1.8463745,0-.5786743-.2753906-1.4605103-1.5708008-2.8659668l3.2792969-1.1022949c.2756348-.0826416.4960938.0275879.6064453.1654053,2.0117188,2.1218872,2.3422852,3.4171143,2.3422852,4.6846924,0,2.7557373-2.2597656,4.7950439-9.3417969,4.7950439-5.4013672,0-6.9445801-2.177063-6.9445801-4.987915,0-1.5708008.1376953-2.6730957.2756348-3.8304443-3.6652832-.1929321-5.1809082-.9094238-5.1809082-3.1140137,0-.661377.1103516-1.3503418.4960938-2.2321777l.220459-.1102295,2.9487305-.1102295.1376953.220459Z"/>
        <path class="cls-1" d="m575.411537,23.3435125c2.177002,1.4880371,3.9682617,3.1139526,5.7319336,5.428772v.220459l-2.8383789,2.5628052h-.2480469c-1.7636719-2.4525757-3.8303223-4.5194092-5.5939941-5.7319336v-.2479858l2.6728516-2.2045898.2756348-.0275269Z"/>
        <path class="cls-1" d="m611.7001112,21.0286932l.1101074,6.0074463c0,3.2518311-1.1298828,4.1611938-6.3105469,4.1611938-.5512695,0-.6062012-.0551147-.7165527-.3306885l-1.6809082-3.692688c1.295166,0,3.1965332-.0551147,3.6650391-.1102295.5786133-.0551147.7441406-.220459.7441406-.8818359v-15.3218994h-13.3654785l-4.5744629.0826416-.1928711-.1928711v-3.25177l.1928711-.1929321,4.5744629.0827026h16.7548828l4.5471191-.0827026.1928711.1929321v3.25177l-.1928711.1928711-3.7478027-.0550537v10.1411133Zm-15.2116699,2.3148193v1.8463135h-3.7202148l.1101074-5.6217041v-3.3895264l-.0827637-2.7557373.1931152-.1929321,3.4445801.0827026h4.546875l3.4172363-.0827026.1928711.1929321-.0827637,2.7557373v3.3068848l.1103516,5.2634277h-3.8581543v-1.4053955h-4.2712402Zm4.2712402-6.8342285h-4.2712402v3.6375732h4.2712402v-3.6375732Z"/>
        <path class="cls-1" d="m620.8404921,28.441596c4.1887207-.1653442,7.0822754-.4960327,9.3693848-1.1298218-.7438965-.6063232-1.4604492-1.2952271-2.1218262-2.0393066-1.295166.9094238-2.7832031,1.736145-4.546875,2.4802246-.0827637.0275269-.1928711.0550537-.2756348.0550537-.1928711,0-.3581543-.0550537-.440918-.1928711l-2.2873535-2.2872314c3.7478027-1.4605713,6.0075684-2.8109131,7.8540039-4.6572266-.2480469-.2755737-.3308105-.661377-.3308105-1.2125244l.0275879-1.3227539c-.440918,1.0471802-1.0471191,1.9841309-1.6259766,2.8659668l-.2753906.0826416-2.6455078-1.2400513-.0827637-.2479858c.3308105-.3582764.6062012-.7440796.8818359-1.1298828h-2.9763184l.1379395-3.6375732v-.4960327l-.0827637-2.3423462.2480469-.1929321,4.4919434.0827026h.3581543c-.1928711-.5236206-.4133301-1.0196533-.661377-1.4054565l.1652832-.220459,2.7006836-.6889038c-1.4604492.0550537-2.8383789.1102295-4.0507812.1377563-.3583984,0-.5512695-.0827026-.6340332-.220459l-1.7636719-2.8108521c6.5588379.0551147,12.59375-.440918,17.4162598-1.2676392l.2756348.0275269c1.1574707.8543091,2.0944824,1.6810303,3.1416016,2.7557373l-.0827637.2756348c-1.2675781.1377563-2.6455078.2755127-4.105957.3857422l2.4526367.7440796.0825195.2755737c-.4682617.7991943-.8818359,1.4329834-1.295166,2.0117188h1.4331055l3.8303223-.0827026.220459.1929321-.0825195,2.0943604v.4684448l.1376953,3.6375732h-2.6179199c.2480469.3858032.4685059.7991333.6889648,1.2125244l-.1103516.2755737-2.7004395,1.4605713-.2480469-.1102295c-.2756348-.7440796-.6062012-1.515686-.9645996-2.2597656-.1376953.6889648-.3857422,1.1574707-.9919434,1.6259155-.854248.7164917-2.3425293.9369507-5.9523926.9369507h-.3308105c-.1928711.1928711-.3581543.3858032-.5236816.5787354h5.6218262l2.3146973-.1378174,1.543457,1.5983276c.1101074.1102295.1652832.220459.1652832.3582153,0,.1102295-.0551758.2480469-.1928711.3858643-1.1574707,1.1849365-2.2873535,2.177002-3.4172363,3.03125,2.4526367.4685059,5.2084961.6063232,8.1845703.6338501l-1.9841309,3.3344116c-.1376953.2756348-.1928711.3031616-.4960938.2756348-3.9130859-.220459-7.0822754-.6889648-9.8103027-1.8739014-3.2519531,1.4053955-6.6137695,1.8739014-10.416748,2.2045898-.3308105,0-.440918-.0551758-.6062012-.3031616l-2.0117188-2.9761963Zm21.1364746-13.7235718h-7.1923828c.5234375.5787354.9919434,1.1574097,1.4604492,1.9014893l-.0827637.2755127-2.590332,1.1298828-.2756348-.0551147c-.3857422-.9369507-.7990723-1.6809692-1.4052734-2.4250488l.0825195-.2479858,1.6535645-.5787354h-8.5427246v2.4526367c.220459-.4685059.4133301-.9645386.5510254-1.4881592l.3032227-.0826416,2.177002.7164917v-.7716064l.1928711-.1929321h3.1140137l.1928711.220459v2.177063c0,.5786743.0275879.6338501,1.5708008.6338501,2.9487305,0,3.1140137-.1378174,3.472168-2.2597656l2.3422852,1.4054565c-.1928711-.3031616-.440918-.6062622-.6887207-.8818359l.0825195-.2479858,2.3149414-1.1298828.2756348.0275879c.3305664.3857422.6611328.7991333.9919434,1.2400513v-1.8187866Zm-10.0310059-2.8383789c-.2478027-.661377-.5234375-1.2401123-.8266602-1.7636719l.1103516-.2480469,2.1494141-.5787354-4.2163086.2480469c.440918.7440186.8818359,1.515625,1.1850586,2.3424072h1.5981445Zm-.4682617,12.5109863c.7438965.5787354,1.515625,1.0196533,2.3422852,1.4329834.7165527-.4133301,1.4055176-.8818359,2.1218262-1.4329834h-4.4641113Zm5.0705566-12.5109863c.4958496-.9370117.8818359-1.9290771,1.2124023-2.9211426-1.074707.0827026-2.177002.1654053-3.2792969.2480469.4133301.5787354.7165527,1.1298828,1.074707,1.9841309l-.1101074.2480469-1.3779297.440918h2.4802246Z"/>
        <path class="cls-1" d="m653.8458632,9.2341375l3.8857422.1377563.1928711.1929321c-.2480469,3.0588379-.3308105,5.7869873-.3308105,7.385376,0,2.4250488.2480469,4.0509033.6337891,5.4562988.3032227,1.0747681.661377,1.8739014,1.2678223,1.8739014.7438965,0,1.6809082-1.4880371,2.3146973-4.0233154l2.7556152,3.472168c.1931152.2480469.1931152.3858643.0827637.6889648-1.1022949,2.8659668-2.8935547,4.9327393-5.1257324,4.9327393-1.7910156,0-3.3618164-1.2675781-4.4641113-3.4997559-.854248-1.736084-1.5983887-4.8225098-1.5983887-8.5703125,0-2.2321777.0551758-4.8776855.1928711-7.8814697l.1928711-.1652832Zm13.0622559,4.7949219l2.6455078-2.1218872.3029785-.0551147c3.0864258,2.0943604,5.7045898,5.208374,7.3027344,8.901001l-.0825195.2480469-3.4997559,2.177002-.2756348-.0826416c-1.4880371-3.8029175-3.5825195-6.8066406-6.4484863-8.8183594l.0551758-.2480469Z"/>
        <path class="cls-1" d="m687.1544569,16.4541082c-.1103516.3306885-.220459.6338501-.220459,1.0196533,0,.6062622.5510254.6889648,2.0944824.6889648.2202148-1.5432129.3857422-2.6730957.5510254-3.8305054-1.9289551-.1102295-3.5549316-.2479858-5.0429688-.440918l-.1652832-.2479858.220459-3.1966553.220459-.1654053c1.7084961.2480469,3.3894043.4133911,5.3183594.4685059.2207031-1.515625.440918-3.0588379.6064453-4.4367676l.2480469-.1377563,3.8303223.440918.1928711.2479858c-.1652832,1.1574707-.3857422,2.4802246-.6337891,3.8305054,1.2678223-.0551147,2.5078125-.1929321,3.8029785-.3582153l.220459.1652832.220459,3.2518311-.2480469.220459c-1.4052734.1652832-3.0036621.2755127-4.6296387.3306885-.220459,1.295166-.4133301,2.590332-.5786133,3.8028564,1.7912598-.1102295,3.7202148-.3582153,5.6767578-.7164307l.2480469.1652832.3581543,3.2242432-.1652832.220459c-2.369873.3858032-4.546875.6337891-6.5585938.7991943-.1379395,1.074707-.2756348,1.956543-.2756348,3.0864258,0,1.3778076.6337891,1.9014282,2.7282715,1.9014282,3.692627,0,4.7121582-.7164917,4.7121582-1.8463745,0-.5786743-.2753906-1.4605103-1.5708008-2.8659668l3.2792969-1.1022949c.2756348-.0826416.4960938.0275879.6064453.1654053,2.0117188,2.1218872,2.3422852,3.4171143,2.3422852,4.6846924,0,2.7557373-2.2597656,4.7950439-9.3417969,4.7950439-5.4013672,0-6.9445801-2.177063-6.9445801-4.987915,0-1.5708008.1376953-2.6730957.2756348-3.8304443-3.6652832-.1929321-5.1809082-.9094238-5.1809082-3.1140137,0-.661377.1103516-1.3503418.4960938-2.2321777l.220459-.1102295,2.9487305-.1102295.1376953.220459Z"/>
        <path class="cls-1" d="m714.9527968,11.2733221h10.2512207l3.8857422-.0826416.2478027.1653442-.0825195,3.3344116v8.1019287l.0825195,3.5548706-.1928711.220459-3.8027344-.0827026h-10.4995117l-3.6374512.0827026-.1928711-.220459v-3.692688l.2478027-.1653442,3.4724121.0827026h9.8930664v-7.385376h-9.5625l-3.7753906.0826416-.1928711-.220459v-3.692688l.2480469-.1653442,3.6101074.0826416Z"/>
        <path class="cls-1" d="m753.8016737,20.8632879h-12.3181152l-4.1062012.0827026-.1928711-.220459v-3.9407349l.2480469-.1652832,3.9406738.0826416h12.2905273l4.2438965-.0826416.220459.1928711v3.913147l-.1928711.220459-4.1335449-.0827026Z"/>
        <path class="cls-1" d="m768.8129042,18.1075506l-4.1611328.0827026-.1928711-.220459v-3.4998169l.220459-.1928711,4.105957.0826416h13.0070801l3.8857422-.0826416.220459.1928711v3.4998169l-.1928711.220459-3.9133301-.0827026h-3.8303223c-.1928711,3.7202759-1.7084961,7.3578491-4.4367676,9.9482422-.9370117.8818359-1.9841309,1.5708008-3.1140137,2.2321777-.220459.1102295-.3305664.1652832-.4685059.1652832-.1376953,0-.3029785-.0826416-.5786133-.2755127l-3.4997559-2.177063c4.3540039-1.6534424,7.2199707-4.8776245,7.578125-9.8931274h-4.6296387Zm9.7277832-6.0901489h-7.1647949l-3.6652832.0827026-.1928711-.220459v-3.5549316l.2480469-.1653442,3.3896484.0827026h7.357666l3.7478027-.0827026.220459.1929321v3.5273438l-.1928711.220459-3.7478027-.0827026Zm3.6650391-5.1256714l1.6259766-.6889648.2756348.0275879c.8266602,1.0471802,1.5708008,2.177002,2.1494141,3.4447021l-.0827637.2479858-1.7084961.7440796-.2753906-.0551758c-.6064453-1.295166-1.1574707-2.3423462-2.0393066-3.472168l.0549316-.2480469Zm2.8935547-1.1574097l1.5983887-.7164917.2756348.0275879c.8266602,1.0471191,1.4880371,2.0943604,2.0668945,3.3619385l-.0827637.2480469-1.5983887.7440186-.2756348-.0550537c-.6062012-1.2952271-1.1572266-2.2321777-2.0390625-3.3895874l.0549316-.220459Z"/>
        <path class="cls-1" d="m804.1070937,23.4261541l.1101074,6.2830811h-4.105957l.1101074-6.1452637v-2.397522c-1.4328613,1.0195923-2.9484863,1.956604-4.9052734,3.0588989-.4133301.1928711-.4682617.1652832-.7714844-.1102295l-2.6179199-2.2597656c5.3461914-2.5076904,9.1765137-5.3460693,12.8693848-9.53479l.2753906-.0275879,2.9487305,2.0943604.0275879.2480469c-1.4331055,1.4605103-2.7558594,2.6455078-3.9406738,3.6651001v5.1256714Z"/>
        <path class="cls-1" d="m828.5438612,23.1781072l.1376953,7.0822754h-4.6572266l.1379395-6.7791138v-1.3778687c-1.984375,1.295166-4.161377,2.5352783-6.5864258,3.7753906-.2480469.1377563-.4133301.1928711-.5510254.1928711-.1652832,0-.2756348-.0826416-.4960938-.3031006l-2.7006836-2.6730957c5.8422852-2.6730957,9.8105469-5.0429688,13.4206543-8.2947998l-6.090332.0275879-3.7478027.0826416-.1928711-.220459v-3.5548706l.2480469-.1653442,3.7202148.0826416h3.1140137v-4.2162476l.220459-.1929321h3.9406738l.220459.220459v4.1887207h1.7636719l2.2873535-.1377563,1.5708008,1.9841309c.1376953.1653442.1928711.2755737.1928711.4133911,0,.1652832-.1379395.3306885-.3583984.6062012-1.8737793,1.9014893-3.7202148,3.5549316-5.5939941,5.0430298v4.2162476Zm9.1489258-1.1573486l-2.4250488,2.8934937-.2756348-.0275269c-1.6533203-1.4605713-3.4169922-2.7557373-5.3459473-3.9407349v-.2479858l2.3422852-2.5904541.2480469-.0550537c2.1494141,1.074707,3.7478027,2.1494141,5.4562988,3.692627v.2756348Z"/>
        <path class="cls-1" d="m860.3651503,20.8632879h-12.3181152l-4.1062012.0827026-.1928711-.220459v-3.9407349l.2480469-.1652832,3.9406738.0826416h12.2905273l4.2438965-.0826416.220459.1928711v3.913147l-.1928711.220459-4.1335449-.0827026Z"/>
        <path class="cls-1" d="m878.0228651,19.2925481l.1376953,10.5269165h-4.7949219l.1376953-10.5820312V7.3602361l.220459-.1929321h4.0786133l.220459.220459v9.2041626l2.369873-2.6455078.2756348-.0275879c2.2871094,1.2677002,3.9958496,2.3424072,6.2004395,4.2163086l-.0275879.2755737-2.6730957,3.3344116-.2756348.0275879c-1.8464355-1.6810303-3.6650391-3.0864258-5.8696289-4.3265381v1.8463745Z"/>
        <path class="cls-1" d="m893.4203261,16.2612371l-.9094238-3.6375732.1103516-.220459c7.6884766-1.8739014,13.8337402-3.1415405,21.6049805-4.5469971l.2480469.1378174.7990723,3.6651611-.1928711.2479858c-3.0588379.220459-5.7319336.7716064-7.4128418,2.1494751-2.5629883,2.0667725-3.9958496,4.5745239-3.9958496,7.164917,0,2.1219482,1.0471191,3.2242432,2.6730957,3.7202148,1.515625.4685059,3.7202148.6338501,6.5861816.6063232l.1928711.1928711-.220459,4.1887207-.220459.1653442c-3.4445801.0551147-6.4484863-.3031616-8.708252-1.2676392-2.7280273-1.1574097-4.4365234-3.472229-4.4365234-7.2200317,0-3.3895874,1.9013672-6.3106079,3.692627-7.7711792-2.7006836.661377-5.6494141,1.4329834-9.5625,2.5352783l-.2480469-.1102295Zm17.4438477.0551147l1.4331055-1.0195923.2753906-.0275879c1.0197754.854248,1.9841309,1.8187866,2.8110352,2.9210815l-.0275879.2755737-1.515625,1.074707h-.2756348c-.854248-1.1298218-1.6259766-2.0391846-2.7282715-2.9761963l.0275879-.2479858Zm2.590332-1.736145l1.4055176-1.0195923.2756348-.0275269c1.0195312.854248,1.9013672,1.736084,2.7280273,2.8383789l-.0275879.2755737-1.4328613,1.0471802h-.2756348c-.854248-1.1298828-1.5981445-1.9290161-2.7006836-2.8659668l.0275879-.2480469Z"/>
        <path class="cls-1" d="m924.194496,16.5643377c3.251709.0275879,5.7592773-.3582153,8.5427246-1.2125244-.440918-.7716064-.9094238-1.515625-1.4055176-2.2872314-2.3146973.5787354-4.3815918.8818359-7.0822754,1.0196533l-.220459-.1929321-.661377-3.031311.1103516-.220459c2.2321777-.1102295,3.8303223-.3582764,5.6767578-.7716064-.5510254-.7991943-1.1848145-1.6258545-1.8737793-2.5352783l.0273438-.2755737,3.5549316-1.2125244.2756348.1102295c.6889648.9093628,1.3227539,1.8463745,1.9841309,2.7832642,1.3503418-.4959717,3.0864258-1.2675781,4.3815918-2.0116577l.2756348.0275269,1.6809082,2.8659668-.0273438.2756348c-1.2678223.6889038-3.0039062,1.4605103-4.2714844,1.956543.3857422.661377.7165527,1.1574097,1.295166,2.0943604,1.295166-.6062622,3.0036621-1.4880981,4.2438965-2.3148193l.2480469.0275879,1.9289551,2.8659668-.0827637.2755127c-1.4052734.8818359-3.1416016,1.7912598-4.4091797,2.4250488.6889648,1.2401123,1.3227539,2.397522,1.8740234,3.4171143.3581543.6889648.5234375,1.2677002.5234375,1.9841309,0,1.2677002-1.1572266,2.3148193-2.2595215,2.3148193-.3032227,0-.854248-.1377563-1.3227539-.4684448-.9370117-.6889038-2.2321777-1.2676392-4.4643555-1.8463745l.0551758-.854248c.9094238-.0826416,1.7636719-.1928711,2.9208984-.3582764.1931152-.0275269.2756348-.1377563.1655273-.3582153-.3583984-.6889038-.8269043-1.5432129-1.2402344-2.3148193-2.9484863.9645386-5.6767578,1.3778687-9.7277832,1.3227539l-.1928711-.1377563-.6889648-3.1416016.1655273-.220459Zm-.5236816,9.7828979l2.2873535-2.4525757.2480469.0275269c1.9289551,2.1494751,5.1530762,2.7006226,8.7080078,2.7006226.9370117,0,1.5708008-.0275879,3.1416016-.1653442l.220459.220459.0825195,3.8305054-.220459.1928711c-1.3500977.0826416-2.2871094.1102295-3.3618164.1102295-5.7871094,0-8.9287109-1.4880981-11.1057129-4.1887207v-.2755737Z"/>
        <path class="cls-1" d="m951.9103163,12.6787786l-.7165527-3.5273438.1652832-.2479858c4.1887207-.9370117,8.4326172-1.5983887,11.4362793-1.9841309,1.3779297,0,2.5354004,1.074707,2.5354004,2.3974609,0,.4960327-.0827637,1.0196533-.4960938,1.4329834-2.2321777,2.2045898-3.7753906,3.6099854-6.0625,5.869751,1.3227539-.661377,2.2871094-.7165527,3.4445801-.7165527,4.1611328,0,6.9443359,2.8384399,6.9443359,7.1098633,0,5.0153809-3.7751465,7.8538208-10.1411133,7.8538208-3.251709,0-6.0073242-1.3502808-6.0073242-4.4918823,0-1.7911987,1.9841309-3.8304443,4.2160645-3.8304443,3.279541,0,4.8500977,2.1494751,5.5942383,4.0784912,1.6259766-.7716064,2.1220703-2.0667725,2.1220703-3.9958496,0-1.9289551-1.4606934-3.472168-3.7480469-3.472168-3.9406738,0-6.7790527,2.590332-9.7001953,6.3657227l-.2753906.0275879-2.9487305-2.3699951-.0275879-.3031006c3.8029785-4.3540649,7.2751465-8.1569824,10.9404297-11.7945557-2.0944824.440918-4.5195312,1.0196533-7.0546875,1.736084l-.220459-.1377563Zm5.5939941,13.0897827c-.5510254,0-1.0471191.220459-1.0471191.7164307,0,.5787354.6337891,1.1022949,2.0393066,1.1022949.3857422,0,.661377-.0275269.8818359-.0826416-.2756348-1.1849365-1.2126465-1.736084-1.8740234-1.736084Z"/>
        <path class="cls-1" d="m983.041664,27.6699895c0,2.2045898-1.7084961,3.8855591-3.9130859,3.8855591-2.177002,0-3.9130859-1.6809692-3.9130859-3.8855591s1.736084-3.8855591,3.9130859-3.8855591c2.2045898,0,3.9130859,1.6809692,3.9130859,3.8855591Zm-6.2004395,0c0,1.2952271.9921875,2.2872925,2.2873535,2.2872925,1.3227539,0,2.2871094-.9920654,2.2871094-2.2872925s-.9643555-2.2872925-2.2871094-2.2872925c-1.295166,0-2.2873535.9920654-2.2873535,2.2872925Z"/>
        <path class="cls-1" d="m311.1568983,44.0737371l3.4724121,2.2872314.0825195.3031616c-3.8579102,4.1060181-7.0270996,6.9169312-9.947998,9.0112915,3.9682617-1.5432129,7.4680176-2.7006836,12.125-4.0509644l.2480469.1102295,1.0197754,3.6651001-.1379395.220459c-3.472168.661377-6.9719238,1.6810303-8.8457031,2.9486694-1.4055176.9645386-1.9016113,1.956604-1.9016113,2.9486694,0,1.9289551,2.5627441,2.6179199,7.2475586,2.4801025l.1652832.220459-.4682617,3.9682617-.1928711.1929321c-7.3027344-.0275269-10.8027344-2.2597046-10.8027344-5.7319336,0-1.7085571.3859863-2.7006226,1.4055176-3.8580322-2.0393066.8818359-3.03125,1.4054565-4.2712402,2.0392456-.9370117.4685059-1.7087402.6062622-2.2873535.6062622-1.5432129,0-2.2873535-1.6809692-2.4250488-2.8934937,1.4604492-.7165527,3.2241211-1.956604,5.3186035-3.8029785,2.9760742-2.6455078,6.916748-6.5585938,9.9206543-10.637085l.2753906-.0275879Zm-13.0344238,2.7833252l2.810791-2.3148193h.3032227c1.3500977,1.0195923,2.7556152,2.3148193,3.9682617,3.7478027l-.0275879.3031006-2.9211426,2.5628662-.3032227.0275269c-1.3227539-1.6259155-2.4526367-2.8659668-3.8579102-4.0509644l.0275879-.2755127Z"/>
        <path class="cls-1" d="m333.8282851,52.0929021c2.7556152-2.7005615,4.7124023-3.7753296,6.9443359-3.7753296,2.1772461,0,4.2163086.9645386,4.2163086,4.4367065,0,1.8739014-.1928711,3.47229-.3305664,4.8776855-.1103516,1.2401123-.220459,2.8383789-.220459,3.4997559,0,.7440796.0825195.9920654.6337891.9920654.4960938,0,2.0117188-.7164307,3.4445801-2.590332l1.1298828,3.692627c.1652832.4960938.0551758.6889648-.3032227,1.0196533-1.6533203,1.5432129-3.3618164,2.2597046-5.2358398,2.2597046-2.1218262,0-3.8303223-1.0195923-3.8303223-4.3264771,0-1.2677002.1376953-2.8935547.2753906-4.4918823.1103516-1.2400513.2480469-2.7006226.2480469-3.8855591,0-1.3227539-.1928711-1.6534424-.9643555-1.6534424-.854248,0-1.8464355.6062012-2.8110352,1.3778076-.9643555.7991943-2.1218262,1.9290771-3.3342285,3.0864258-.0551758,2.8935547,0,5.9523926.1652832,9.8931274,0,1.2125244-.8269043,2.177063-2.2045898,2.177063-1.1022949,0-1.6811523-.7991943-2.0117188-1.736145-.2756348-.7440796-.9645996-2.0392456-2.1494141-3.3895874-.4133301.5787354-.8269043,1.2125244-1.3227539,1.9290771h-.3032227l-2.2045898-2.9486694v-.3031616c2.177002-2.9210205,4.105957-5.2358398,6.2280273-7.8538208.0275879-.6062622.0275879-1.2125244.0275879-1.8187866-1.1298828.4133301-2.3425293.9920654-3.6928711,1.7912598l-.3029785-.0827026-1.515625-3.031311.0825195-.3031006c1.956543-1.0196533,3.9406738-1.8188477,5.5666504-2.3699951.0551758-1.295166.1103516-2.6455078.1928711-4.0784912l.1928711-.1652832,3.6101074.0275269.1928711.220459c-.0827637,1.2676392-.1652832,2.5077515-.220459,3.6375732.3857422.3031616.7714844.7716064.7714844,1.3227539,0,.4960327-.1928711.9369507-.9367676,2.0116577l-.0275879.5511475Zm-4.3266602,11.1607666c.3308105.1102295.4685059,0,.4685059-.5511475v-2.7281494c-.5786133.8266602-1.295166,1.8739014-1.8737793,2.7005615.5234375.2480469,1.0471191.4685059,1.4052734.5787354Z"/>
        <path class="cls-1" d="m356.0030898,66.9188299c1.4882812-4.7950439,2.8659668-8.9837646,4.2714844-13.2000122-1.2675781.1929321-2.7558594.3858032-4.1335449.5511475l-.220459-.1653442-.6064453-3.3344727.1655273-.1928711c2.177002-.1653442,4.2163086-.4133301,6.1176758-.6889648.661377-1.9014282,1.295166-3.8580322,2.0117188-5.9799194l.2756348-.1377563,3.7202148.9093628.0825195.3031616c-.5786133,1.5707397-1.1022949,3.03125-1.5705566,4.3815918.5510254-.0275879,1.074707-.0551147,1.5981445-.0551147,2.2873535,0,4.4367676,1.4054565,4.4091797,5.428772-.0275879,3.6375732-.5234375,7.2751465-1.2675781,9.4246826-.9921875,3.1139526-2.810791,3.7753296-4.2714844,3.7753296-1.0195312,0-2.177002-.1653442-3.3894043-.4960327-.1928711-.0551147-.2756348-.1102295-.3032227-.4960327l-.3305664-3.913147c.8818359.3306885,2.0942383.6062622,2.7556152.6062622.8818359,0,1.2675781-.1653442,1.6811523-1.4605103.440918-1.4054565.9919434-4.7950439.9919434-7.1925049,0-1.6534424-.1928711-1.9841309-1.4055176-1.9841309-.4958496,0-1.1298828.0551147-1.8186035.1102295-1.8464355,5.2359009-3.2243652,9.5073242-4.7399902,14.8533936l-.3032227.0827026-3.6374512-.9093628-.0827637-.220459Zm16.4243164-16.5620117l2.9211426-1.8463135h.2753906c2.3425293,2.5628052,4.1062012,5.5665283,5.2910156,8.680542l-.1101074.2755737-3.4448242,1.9841309-.2478027-.0551147c-1.0749512-3.1690674-2.6455078-6.4208984-4.7399902-8.7632446l.0551758-.2755737Zm1.5983887-5.0705566l1.4328613-1.0196533.2756348-.0275269c1.0195312.8543091,1.9841309,1.8187866,2.810791,2.9210815l-.0275879.2755737-1.515625,1.0747681h-.2756348c-.854248-1.1298828-1.6257324-2.0393066-2.7280273-2.9761963l.0275879-.2480469Zm2.590332-1.736084l1.4055176-1.0196533.2753906-.0275879c1.0197754.8543091,1.9016113,1.736145,2.7282715,2.8384399l-.0275879.2755737-1.4331055,1.0471802h-.2753906c-.854248-1.1298218-1.5983887-1.9290161-2.7006836-2.8659668l.0275879-.2479858Z"/>
        <path class="cls-1" d="m392.5353163,69.2611761h-3.8581543l.1379395-8.5151978v-3.0864258c-.440918.9644775-.7165527,1.4605103-1.2126465,2.177002-.1101074.1928711-.2480469.2755737-.3581543.2755737-.1379395,0-.2480469-.1102295-.3032227-.3031616l-.9645996-3.8304443c2.177002-3.6651611,3.8029785-7.9089355,4.6848145-12.7315063l.2480469-.1377563,3.472168.854248.1379395.2480469c-.6340332,2.4250488-1.295166,4.4918213-1.9841309,6.3657227v18.6838989Zm12.0148926-13.5582275h1.6259766l3.7753906-.0827026.1652832.1378174v3.0588379l-.1652832.1378174-3.7753906-.0826416h-1.6259766v6.0626221h3.3344727l3.9682617-.0827026.1652832.1377563v3.0588989l-.1652832.1377563-3.9682617-.0826416h-10.4719238l-3.8579102.0826416-.1928711-.1652832v-3.0037842l.1652832-.1653442,3.885498.0827026h3.1140137v-6.0626221h-1.6533203l-3.6101074.0826416-.1928711-.1653442v-3.0037231l.1652832-.1654053,3.6376953.0827026h1.6533203v-4.546936h-2.5627441l-3.7202148.0826416-.1928711-.1653442v-3.0037231l.1652832-.1654053,3.7478027.0827026h3.7753906c-.854248-.9645386-2.177002-2.2321167-3.251709-3.031311l.0549316-.2480469,2.7282715-1.9289551.3032227.0550537c1.2399902.8267822,2.5627441,1.9841309,3.7202148,3.1140137v.2755737l-2.4526367,1.7636719h4.7397461l3.8305664-.0827026.1652832.1378174v3.0588379l-.1652832.1378174-3.8305664-.0826416h-3.03125v4.546936Z"/>
        <path class="cls-1" d="m425.0719374,49.0340643l.1652832.1378174v2.7557373c2.1218262-.5787354,4.105957-1.4329834,4.9328613-3.6100464l-4.4367676.0827026-.1931152-.1929321v-2.8934937l.1931152-.1929321,4.546875.0827026h.3581543v-2.2045898l.220459-.1929321h3.3896484l.2480469.1929321v2.2045898h2.1494141l4.5744629-.0827026.1928711.1929321c-.0273438,2.7005615-.1101074,4.8776245-.3857422,6.2279053-.440918,2.0668335-1.6809082,2.9486694-5.2910156,2.9486694-.4685059,0-.6062012-.0827026-.7714844-.440918l-1.2675781-2.9210815c1.074707.0275879,1.5429688.0275879,2.3422852-.0275879.8266602-.0550537,1.1298828-.2479858,1.2675781-.7991333.1103516-.4960327.1376953-1.1849976.1652832-1.9841309h-3.3618164c-.7717285,3.1966553-2.8659668,5.3185425-6.9997559,6.4484253-.1101074.0275879-.1928711.0551147-.2753906.0551147-.1655273,0-.2756348-.0827026-.440918-.2479858l-2.0393066-2.2321777-1.5432129-.0275879v7.3578491l.1101074,6.8067017c.8269043-.7991943,1.5158691-1.736145,1.9016113-2.8384399.3857422-1.0747681.4960938-2.2045898.5786133-3.3619995l-1.6259766.0551147-.2202148-.1377563v-2.7833252l.1928711-.1928711,1.7084961.0550537v-2.1218872l.1928711-.1929321h2.8383789l.1928711.1929321v2.1494751h1.1574707l2.6730957-.0551147.1928711.1653442c-.1103516,5.0429688-.220459,7.605835-.4685059,9.0388184,1.9016113-1.9290161,2.4526367-3.4447021,2.6179199-6.1452637l-1.515625.0275269-.220459-.1377563v-2.7833252l.1928711-.1928711,1.5983887.0275269v-2.0943604l.1928711-.1929321h2.8935547l.1928711.1929321v2.1494751h1.5432129l2.7282715-.0551147.1928711.1653442c-.0827637,7.8538818-.220459,9.6726074-1.0471191,10.6096191-.6064453.7164307-1.6535645,1.0471191-3.6928711,1.0471191-.3581543,0-.4685059-.0826416-.5510254-.3582153l-.7441406-2.2597046c-.5234375.9094238-1.1848145,1.7085571-2.0117188,2.4801636-.1101074.1102295-.220459.1653442-.3581543.1653442-.1101074,0-.2756348-.0826416-.440918-.2480469l-1.7636719-1.6534424c-.1376953.3582764-.2756348.6063232-.440918.8267822-.6337891.7164307-1.5432129,1.0471191-3.3896484,1.0471191-.3581543,0-.4685059-.0826416-.5510254-.3582153l-.6889648-2.0116577c-.4685059.8266602-1.1022949,1.5707397-1.8464355,2.2872314-.1101074.0826416-.1928711.1378174-.3029785.1378174-.1103516,0-.2480469-.0827026-.4133301-.2480469l-1.4882812-1.4329834.0275879,1.7636719h-4.0234375l.1379395-9.5348511v-7.385376l-2.3974609.0827026-.1928711-.1654053v-3.0037231l.1652832-.1653442,2.4250488.0826416v-6.0350342l.1928711-.1928711h3.3620605l.1928711.1928711v6.0075073l2.2597656-.0551147Zm3.5546875,11.2158203c-.1101074,1.9290771-.3857422,3.8580322-1.2124023,5.6217041.4133301.0275879.7714844,0,1.1298828-.0275269.2756348-.0275269.5234375-.1102295.6337891-.3306885.1928711-.3858032.3032227-2.2321167.3581543-5.2634888h-.9094238Zm9.5073242,0c-.0549316,1.8188477-.3305664,3.8580322-1.1572266,5.5114746.440918.0275879.8266602,0,1.2124023-.0275269.3032227-.0275269.5512695-.1102295.661377-.3306885.1928711-.3858032.3032227-2.1218872.3581543-5.1532593h-1.074707Z"/>
        <path class="cls-1" d="m460.0060194,64.5764226c5.9250488-.9920654,8.5981445-3.8304443,8.5981445-7.1373291,0-4.1887207-2.3149414-6.8342285-5.1257324-7.4129639-.5512695,5.208374-2.3425293,10.0584717-4.2438965,12.8417358-1.4880371,2.177063-3.03125,2.9761963-5.1806641,2.9761963-1.6535645,0-2.838623-.7991333-3.8857422-2.4525757-.7990723-1.2401123-1.3503418-2.7557373-1.3503418-4.987915,0-6.6688843,4.9880371-12.0701294,12.5661621-12.0701294,7.5231934,0,11.5466309,5.0430298,11.5466309,11.1607056,0,5.0155029-3.5273438,8.8183594-9.3696289,10.1962891-.3857422.0275269-.5786133.0275269-.8818359-.2756348l-2.6730957-2.8383789Zm-7.3852539-6.1728516c0,.9094238.1652832,1.5708008.4685059,2.0943604.3029785.5511475.6889648.9094238,1.1298828.9094238.6337891,0,1.4328613-.6338501,2.177002-2.1219482,1.5432129-3.0864258,2.3146973-6.0075073,2.7280273-9.3695068-4.0231934.6889648-6.503418,4.2438354-6.503418,8.4876709Z"/>
        <path class="cls-1" d="m486.0123671,46.1129827l.1652832-.220459h4.0510254l.1928711.220459-.0551758,5.1532593,5.8422852-1.6810303,2.7280273-.9644775,2.4802246,2.3148193c.3032227.2755127.440918.440918.440918.661377,0,.1652832-.0549316.3306885-.1928711.6062012-1.3227539,2.5352783-2.8935547,4.987915-4.4091797,6.9169312-.3581543.440918-.4960938.4684448-1.074707.220459l-3.0588379-1.3227539c1.2675781-1.6259155,2.2045898-3.1415405,3.0036621-4.5194092l-5.7868652,1.7085571-.0551758,4.9052124c0,.7716064.0551758,1.1849976.2753906,1.4605103.3032227.3858643.8818359.4685059,2.3149414.4685059,2.0668945,0,4.3815918-.1653442,7.6333008-.4133301l.220459.1377563.0275879,3.7753296-.1376953.220459c-2.5354004.1929321-5.0705566.3306885-7.5231934.3306885-3.1416016,0-5.2634277-.1102295-6.4484863-1.5982666-.7714844-.9370117-.7438965-2.177063-.7438965-3.9958496l.0275879-3.9958496-1.984375.5787354-3.472168,1.1298828-.3029785-.0827026-1.0473633-3.472229.1103516-.2755737,3.7202148-.9920654,3.0036621-.8543091.0551758-6.4208374Z"/>
        <path class="cls-1" d="m511.5238417,50.6875066c1.515625,1.3227539,4.2714844,2.8108521,6.7514648,3.6099854l.1103516.2756348-1.9289551,3.6375732-.3032227.0826416c-2.6455078-1.0196533-5.2634277-2.4250488-7.1374512-4.3265381v-.2755127l2.2597656-3.0037842h.2480469Zm.3032227,9.1490479c2.5351562,1.736084,5.842041,2.9210815,10.1960449,3.8029175l.1103516.1929321-1.8464355,4.0233154-.2756348.1102295c-4.0783691-.9368896-8.2119141-2.7281494-10.829834-4.6296387l-.0275879-.2755127,2.3974609-3.1691284.2756348-.0551147Zm2.590332-15.5147705c2.7006836.854248,5.208252,1.956543,7.6333008,3.3068848v.2755127l-2.3974609,3.3344727-.2756348.0826416c-2.4250488-1.515625-5.0429688-2.7281494-7.6884766-3.6375732l-.0275879-.220459,2.4802246-3.1139526.2756348-.0275269Z"/>
        <path class="cls-1" d="m534.8033827,53.1951971l-3.7753906.0827026-.1928711-.220459v-3.5273438l.2480469-.1653442,3.7475586.0826416h6.4208984l-.0825195-4.1611328.1928711-.1928711h3.9406738l.220459.1928711.0827637,4.1611328h1.515625l3.9406738-.0826416.2480469.1653442v3.5273438l-.1928711.220459-4.0234375-.0827026h-1.4331055l.1928711,10.4718018c.0275879,2.0668335-.7163086,3.6651611-5.5939941,3.8029785-.6889648,0-.7165527-.0275879-.9370117-.4960938l-1.736084-3.692627c1.6809082,0,2.6455078-.0275879,3.4445801-.0827026.2756348-.0275269.4685059-.220459.4685059-.8818359l-.0275879-4.0509644.1103516-2.0667725c-2.9487305,3.7478027-6.6689453,6.723999-9.7553711,8.5152588-.4133301.2479858-.6062012.2755127-.9094238.0275269l-2.8659668-2.5077515c4.5195312-2.6455078,7.9916992-5.4562988,10.7199707-9.0388184h-3.9682617Z"/>
        <path class="cls-1" d="m574.2582167,58.431159h-12.3181152l-4.1062012.0826416-.1928711-.220459v-3.9406738l.2480469-.1654053,3.9406738.0827026h12.2905273l4.2438965-.0827026.220459.1929321v3.913147l-.1928711.220459-4.1335449-.0826416Z"/>
        <path class="cls-1" d="m604.949623,49.5852117c.1928711.220459.3032227.3306885.3032227.4960327,0,.1102295-.0275879.2479858-.1379395.4684448-1.295166,2.8109131-2.7556152,5.3186035-4.3540039,7.4956055.8818359.7440796,1.7636719,1.5432129,2.6179199,2.4250488v.3031616l-2.6730957,2.9761963-.2478027.0275269c-.7993164-.8818359-1.5983887-1.6809692-2.4250488-2.4801025-2.5078125,2.5628052-5.5114746,4.6846924-9.2868652,6.5861816-.2480469.1378174-.4133301.1928711-.5236816.1928711-.1928711,0-.3581543-.0826416-.6337891-.2755127l-3.2241211-2.2045898c4.4365234-1.9014893,7.9638672-4.2714233,10.609375-6.944458-.9367676-.7165527-1.956543-1.4329834-3.0864258-2.1219482v-.2755737l2.3425293-2.5628052.3029785-.0275879c1.0197754.6062622,2.0117188,1.2125244,2.9487305,1.8463135.9645996-1.3502808,1.8188477-2.8383789,2.4526367-4.3264771l-5.3461914.0275269c-1.7912598,2.4802246-3.692627,4.6021118-5.621582,6.3657837-.5236816.3858032-.661377.3582153-1.1574707.0275269l-3.0036621-1.9289551c3.6650391-2.8384399,6.9719238-6.8342285,8.9284668-11.298584l.2756348-.0826416,3.7478027,1.3503418.0551758.3031006c-.3032227.6062622-.6340332,1.1849365-.9645996,1.7636719l3.7753906-.0551147,2.2597656-.1653442,2.0666504,2.0943604Zm-2.5627441-4.3540649l1.4328613-1.0195923.2756348-.0275879c1.0195312.854248,1.9841309,1.8187866,2.810791,2.9210815l-.0275879.2755737-1.515625,1.074707h-.2753906c-.8544922-1.1298218-1.6259766-2.0391846-2.7282715-2.9761963l.0275879-.2479858Zm2.590332-1.736145l1.4055176-1.0195923.2756348-.0275269c1.0195312.854248,1.9013672,1.736084,2.7280273,2.8383789l-.0275879.2755737-1.4328613,1.0471802h-.2756348c-.854248-1.1298828-1.5983887-1.9290161-2.7006836-2.8659668l.0275879-.2480469Z"/>
        <path class="cls-1" d="m628.8898085,58.431159h-12.3183594l-4.105957.0826416-.1928711-.220459v-3.9406738l.2480469-.1654053,3.9406738.0827026h12.2905273l4.2438965-.0827026.220459.1929321v3.913147l-.1928711.220459-4.1335449-.0826416Z"/>
        <path class="cls-1" d="m645.5262831,69.2611761h-3.8581543l.1376953-8.5151978v-3.0864258c-.440918.9644775-.7163086,1.4605103-1.2124023,2.177002-.1103516.1928711-.2480469.2755737-.3581543.2755737-.1379395,0-.2480469-.1102295-.3032227-.3031616l-.9645996-3.8304443c2.1772461-3.6651611,3.8029785-7.9089355,4.6848145-12.7315063l.2480469-.1377563,3.472168.854248.1379395.2480469c-.6337891,2.4250488-1.2954102,4.4918213-1.9841309,6.3657227v18.6838989Zm12.0148926-13.5582275h1.6259766l3.7753906-.0827026.1652832.1378174v3.0588379l-.1652832.1378174-3.7753906-.0826416h-1.6259766v6.0626221h3.3344727l3.9682617-.0827026.1652832.1377563v3.0588989l-.1652832.1377563-3.9682617-.0826416h-10.4716797l-3.8581543.0826416-.1928711-.1652832v-3.0037842l.1652832-.1653442,3.8857422.0827026h3.1137695v-6.0626221h-1.6533203l-3.6101074.0826416-.1928711-.1653442v-3.0037231l.1652832-.1654053,3.6376953.0827026h1.6533203v-4.546936h-2.5627441l-3.7202148.0826416-.1928711-.1653442v-3.0037231l.1652832-.1654053,3.7478027.0827026h3.7753906c-.854248-.9645386-2.177002-2.2321167-3.251709-3.031311l.0549316-.2480469,2.7282715-1.9289551.3032227.0550537c1.2399902.8267822,2.5627441,1.9841309,3.7202148,3.1140137v.2755737l-2.4526367,1.7636719h4.7397461l3.8305664-.0827026.1652832.1378174v3.0588379l-.1652832.1378174-3.8305664-.0826416h-3.03125v4.546936Z"/>
        <path class="cls-1" d="m680.8185194,43.0540838l.1928711-.1928711h3.6928711l.1928711.1928711v2.7833252h5.9799805l3.8303223-.0826416.220459.1928711-.0825195,2.0943604v.7991943l.1376953,3.251709h-3.472168c.3029785.2480469.6062012.5511475.9643555.8543091l-.0825195.2755737c-2.9211426.6337891-5.7871094,1.1298828-8.5979004,1.5432129v3.0037842l6.4482422-.6338501,4.5471191-.4960327.220459.1653442.2756348,3.0588989-.1655273.220459-4.546875.3582153-6.7790527.6889038v2.8384399c0,.7991333.0825195.9369507,2.7556152.9369507,3.2792969,0,4.0234375-.0826416,4.5744629-.5511475.4960938-.4133301.6064453-1.0471802.7441406-2.3148193l3.3896484,1.5432129c.3029785.1378174.3581543.220459.3029785.5511475-.1652832,1.3503418-.5234375,2.5352783-1.295166,3.1966553-.9370117.854248-2.0117188,1.2401123-7.798584,1.2401123-5.9250488,0-6.7792969-.5787354-6.7792969-3.0864258l.0827637-3.9682617-4.0786133.4133301-4.546875.4960327-.220459-.1653442-.3032227-3.0864258.1928711-.1928711,4.5471191-.3582764,4.4367676-.440918v-2.8659668c-1.9016113.220459-3.7478027.4133301-5.5390625.5511475-.3583984.0275879-.5236816-.0275879-.6889648-.3031006l-1.736084-2.7833252c7.4956055-.4960327,12.9243164-1.2401123,17.4438477-2.2872314l.2756348.0550537c.4958496.3582764.9643555.6889648,1.4328613,1.1022949v-2.5628052h-16.0107422v2.9761963h-3.9958496l.1376953-2.9486694v-.8266602l-.0825195-2.3424072.2478027-.1928711,4.4919434.0826416h5.0429688v-2.7833252Z"/>
        <path class="cls-1" d="m708.946205,65.2377996c0,2.2045898-1.7084961,3.8856201-3.9130859,3.8856201-2.177002,0-3.9130859-1.6810303-3.9130859-3.8856201s1.736084-3.8856201,3.9130859-3.8856201c2.2045898,0,3.9130859,1.6810303,3.9130859,3.8856201Zm-6.2004395,0c0,1.295166.9921875,2.2872314,2.2873535,2.2872314,1.3227539,0,2.2873535-.9920654,2.2873535-2.2872314s-.9645996-2.2872314-2.2873535-2.2872314c-1.295166,0-2.2873535.9920654-2.2873535,2.2872314Z"/>
      </g>
      <g>
        <path class="cls-1" d="m2.2889784,73.4776678v-8.3874512c-.3681641.5441895-.9121094,1.1844482-.9121094,1.1844482l-.5761719-1.7286377s2.0644531-1.96875,3.1689453-5.4742432l1.3603516.5603027c-.4316406,1.3924561-.9765625,2.5610352-1.5205078,3.5213623v10.3242188h-1.5205078Zm10.9160156-3.425415v-1.2325439h-2.3847656v4.657959h-1.5683594v-4.657959h-2.2412109v1.2325439h-1.5683594v-8.4833984h3.8095703v-2.4970703h1.5683594v2.4970703h3.9541016v8.4833984h-1.5693359Zm-3.953125-7.0908203h-2.2412109v4.4656982h2.2412109v-4.4656982Zm3.953125,0h-2.3847656v4.4656982h2.3847656v-4.4656982Z"/>
        <path class="cls-1" d="m32.4862441,65.410407c-3.2978516-1.6646729-5.3310547-3.4094238-6.4511719-4.8980713-.9921875,1.4085693-3.3457031,3.5374756-6.5146484,4.9140625l-.7998047-1.5526123c3.6972656-1.2805176,5.6982422-3.5214844,6.5947266-4.8980713h1.2802734c.9277344,1.3765869,2.8808594,3.2174072,6.6904297,4.8820801l-.7998047,1.5526123Zm-12.8056641,6.9147949c2.7529297-1.6967773,2.8496094-3.6014404,2.8496094-7.8111572h1.6162109c0,4.2097168-.0957031,6.9467773-3.1376953,8.963623l-1.328125-1.1524658Zm8.3232422.9923096v-8.7874756h1.6171875v8.7874756h-1.6171875Z"/>
        <path class="cls-1" d="m45.2352675,68.8197088v2.1289062c0,1.8887939-.2714844,2.4649658-3.8574219,2.4649658l-.7998047-1.5526123c2.7851562,0,3.0566406-.0479736,3.0566406-.8643799v-2.1768799h-6.7060547v-1.4405518h6.7060547v-2.3209229h-5.4736328v-1.4405518h5.4736328v-2.3690186c-1.4560547.0960693-3.0732422.1600342-5.0253906.1600342l-.5761719-1.456543c7.4267578,0,10.9160156-.8322754,10.9160156-.8322754l.9921875,1.2805176s-1.5205078.4321289-4.7060547.7362061v2.4810791h4.6103516v1.4405518h-4.6103516v2.3209229h5.8427734v1.4405518h-5.8427734Z"/>
        <path class="cls-1" d="m68.0380019,73.3975896c-.8007812-.9603271-1.5371094-2.0168457-2.0175781-2.9931641-.6074219,1.0563965-1.5683594,2.1768799-2.640625,3.0732422l-.9921875-1.4085693c1.1845703-.7843018,2.1767578-2.0168457,2.8164062-3.2012939-.6875-1.5526123-.9599609-2.9291992-1.1679688-4.0177002-.1601562.3201904-.4326172.9284668-.640625,1.2325439l-.8964844-1.2965088c0-.0159912-.7519531,1.0723877-.7519531,1.0723877,0,0-1.4404297-.7042236-2.2089844-2.3688965v2.3529053h-1.5048828v-2.3049316c-.8642578,1.8406982-2.3369141,2.5770264-2.3369141,2.5770264l-.8955078-1.3284912s1.5039062-.5603027,2.3369141-1.7287598h-2.0009766v-1.2324219h1.328125c-.1279297-.2401123-.65625-1.088501-1.2167969-1.7287598l1.1210938-.7523193c.5283203.7043457,1.2167969,1.8248291,1.2167969,1.8248291l-.9931641.65625h1.4404297v-2.7531738h1.5048828v2.7531738h1.4248047l-1.0400391-.6082764s.671875-.9443359,1.0556641-1.8887939l1.2167969.5922852c-.4326172.9924316-.9765625,1.7126465-1.1367188,1.9047852h1.3603516v1.2324219h-1.984375c.5761719.7843018,1.7285156,1.2965088,2.1132812,1.4406738,1.5517578-2.3210449,1.9521484-5.3781738,1.9521484-5.3781738l1.6005859.4001465s-.2080078.8642578-.5917969,2.0328369h3.6972656v1.4405518h-.7998047c-.0800781,1.3444824-.4169922,3.6494141-1.5527344,5.9383545.5439453,1.088501,1.328125,2.1448975,2.3525391,3.1052246l-1.1679688,1.3605957Zm-6.6748047-.2561035c-.5449219-.3681641-1.3291016-.8963623-1.8886719-1.1844482-.9443359.6882324-2.1933594,1.1844482-4.0019531,1.5206299l-.65625-1.4245605c1.4082031-.1120605,2.4326172-.4002686,3.2011719-.7844238-1.4570312-.6882324-2.5927734-1.1363525-2.5927734-1.1363525.4316406-.4962158.9443359-1.088501,1.2802734-1.6166992h-1.7607422v-1.3446045h2.5771484c.4003906-.6402588.5917969-1.1363525.5917969-1.1363525l1.6650391.3040771s-.1757812.3841553-.4482422.8322754h3.6660156v1.3446045h-1.2167969c-.1923828.7683105-.6884766,1.8087158-1.2324219,2.4329834.4960938.2401123,1.2001953.6402588,1.7128906.9283447l-.8964844,1.2645264Zm-2.8818359-4.6258545c-.1914062.3040771-.6396484.8162842-.8955078,1.1044922,0,0,.6240234.3520508,1.5361328.7521973.4326172-.4641113.9287109-1.2965088,1.0888672-1.8566895h-1.7294922Zm6.5947266-5.5222168c.0644531.8322754.3369141,2.5770264,1.0244141,4.3217773.640625-1.600708.8330078-3.3133545.8330078-4.3217773h-1.8574219Z"/>
        <path class="cls-1" d="m75.7294081,73.4776678v-6.7227783s-.6884766,2.7531738-1.8564453,4.3217773l-1.0566406-1.5366211c1.328125-1.3446045,2.1611328-3.1052246,2.5771484-4.2576904h-2.3046875v-1.3925781h2.640625v-4.8179932h1.5205078v4.8179932h2.3691406v1.3925781h-2.0488281c.8642578,1.2004395,2.0644531,1.9527588,2.0644531,1.9527588l-1.0556641,1.4245605s-.8330078-1.168457-1.3291016-2.4329834v7.2509766h-1.5205078Zm-1.6005859-10.1000977c-.4003906-1.5686035-.9443359-2.6730957-.9443359-2.6730957l1.296875-.5762939s.5439453,1.2645264.9277344,2.7371826l-1.2802734.512207Zm3.2333984-.5922852s.6240234-1.3284912.8642578-2.6571045l1.3769531.4642334c-.3369141,1.3925781-1.0087891,2.8171387-1.0087891,2.8171387l-1.2324219-.6242676Zm6.8662109,10.6923828v-4.6739502l-4.6738281.9283447-.2714844-1.4885254,4.9453125-.9924316v-8.1793213h1.5693359v7.8752441l1.1201172-.2241211.2880859,1.4886475-1.4082031.2880859v4.9780273h-1.5693359Zm-1.7119141-6.7387695c-1.1210938-1.3125-2.4814453-2.2248535-2.4814453-2.2248535l.9287109-1.0725098s1.3759766,1.0404053,2.4970703,2.2249756l-.9443359,1.0723877Zm.2392578-3.3453369c-1.1201172-1.2325439-2.4804688-2.2409668-2.4804688-2.2409668l.9443359-1.0563965s1.4404297,1.088501,2.5126953,2.2409668l-.9765625,1.0563965Z"/>
        <path class="cls-1" d="m97.1551894,73.4776678v-8.2593994c-1.2167969,1.3925781-2.9619141,3.0092773-5.3789062,4.3377686l-.9755859-1.5526123c4.1455078-1.9047852,6.5625-5.0100098,7.3300781-6.5306396h-6.8339844v-1.4405518h13.4453125v1.4405518h-4.7705078c-.1435547.3361816-.4960938,1.0404053-1.1357422,1.9527588v10.052124h-1.6806641Zm6.9462891-3.8255615c-1.7128906-1.1844482-3.7128906-3.0892334-4.9619141-4.6258545l1.2324219-.8803711c1.2167969,1.4245605,3.0253906,3.0091553,4.8183594,4.1937256l-1.0888672,1.3125Z"/>
        <path class="cls-1" d="m121.7499159,73.4776678c-1.6171875-.65625-3.3935547-1.2645264-4.7705078-1.7127686-1.5527344.9604492-4.8818359,1.6646729-7.0751953,1.7127686l-.65625-1.5847168c1.9697266,0,4.3222656-.144043,5.8271484-.6882324-1.2324219-.3201904-2.5771484-.5922852-3.4892578-.7843018.5117188-.512207,1.0556641-1.1364746,1.4404297-1.6966553h-4.2255859v-1.3286133h5.0419922c.2392578-.3040771.4794922-.7363281.6240234-1.0883789h-4.7539062v-4.1777344h3.5214844v-1.168457h-4.1142578v-1.3284912h13.8134766v1.3284912h-4.1933594v1.168457h3.6337891v4.1777344h-6.0341797c-.1289062.3360596-.3847656.8162842-.5771484,1.0883789h7.4433594v1.3286133h-2.9609375c-.4326172.800293-1.1044922,1.5845947-1.7929688,2.112793,1.1689453.3201904,2.8007812.7843018,4.2900391,1.2805176l-.9921875,1.3605957Zm-8.515625-10.1160889h-1.953125v1.7126465h1.953125v-1.7126465Zm1.6806641,5.3621826c-.2402344.368042-.5761719.7843018-.8486328,1.0563965.9121094.1760254,1.7763672.3681641,2.609375.5921631.6083984-.368042,1.328125-.9763184,1.7285156-1.6485596h-3.4892578Zm2.2568359-7.7631836h-2.3691406v1.168457h2.3691406v-1.168457Zm0,2.401001h-2.3691406v1.7126465h2.3691406v-1.7126465Zm3.6328125,0h-2.0644531v1.7126465h2.0644531v-1.7126465Z"/>
        <path class="cls-1" d="m132.4022597,68.5316228v3.7454834h-1.6484375v-3.7454834h-3.6972656v-1.5686035h3.6972656v-3.5374756h1.6484375v3.5374756h3.8095703v1.5686035h-3.8095703Z"/>
        <path class="cls-1" d="m151.2528456,73.4776678v-.8483887h-8.4189453v.8483887h-1.6171875v-12.2130127h3.5859375c.2880859-.4321289.7197266-1.3284912,1.0400391-2.1928711l1.7929688.4642334c-.3046875.6242676-.7041016,1.2965088-1.0244141,1.7286377h6.2578125v12.2130127h-1.6162109Zm0-10.7723389h-8.4189453v1.824707h8.4189453v-1.824707Zm0,3.137207h-8.4189453v1.9367676h8.4189453v-1.9367676Zm0,3.2492676h-8.4189453v2.0969238h8.4189453v-2.0969238Z"/>
        <path class="cls-1" d="m169.7655409,73.4776678v-1.168457h-9.4443359v1.168457h-1.5849609v-11.3006592h5.4101562v-3.1052246h1.6015625v3.1052246h5.6015625v11.3006592h-1.5839844Zm-5.6191406-9.8599854h-3.8251953v2.8331299h3.8251953v-2.8331299Zm0,4.1776123h-3.8251953v3.0732422h3.8251953v-3.0732422Zm5.6191406-4.1776123h-4.0175781v2.8331299h4.0175781v-2.8331299Zm0,4.1776123h-4.0175781v3.0732422h4.0175781v-3.0732422Z"/>
        <path class="cls-1" d="m175.8407362,63.153449v-1.3605957h6.2255859v1.3605957h-6.2255859Zm2.0800781,9.7159424v.6082764h-1.5361328v-4.9780273h5.1542969v4.369751h-3.6181641Zm-1.3759766-11.9407959v-1.2645264h4.8173828v1.2645264h-4.8173828Zm0,6.6265869v-1.2644043h4.8173828v1.2644043h-4.8173828Zm.015625-2.2088623v-1.2645264h4.8017578v1.2645264h-4.8017578Zm3.4414062,4.4178467h-2.0810547v1.7446289h2.0810547v-1.7446289Zm9.3798828,3.713501c-1.296875-.3841553-2.7050781-1.088501-3.3935547-1.6806641-.6884766.5921631-2.0166016,1.3125-3.265625,1.6806641l-.9443359-1.600708c1.2167969-.2080078,2.4335938-.5761719,3.0253906-1.0404053-1.3125-1.3284912-1.9521484-2.6090088-1.9521484-2.6090088l1.3125-.8164062s.6240234,1.2965088,1.7919922,2.4329834c.8164062-.7202148,1.4248047-2.0488281,1.5371094-2.6409912h-5.0585938v-1.4406738h6.8027344v1.2805176s-.5595703,2.2409668-2.1123047,3.7296143c.6240234.4161377,1.7441406.880249,3.1210938,1.0563965l-.8642578,1.6486816Zm-1.296875-8.4354248c-.8642578,0-1.4082031-.5441895-1.4082031-1.3605957v-2.5770264h-1.7451172c-.015625,2.0328369-.2392578,3.4414062-2.1445312,4.2897949l-.9599609-1.3765869c1.4882812-.432251,1.6484375-1.6806641,1.6484375-3.2012939,0-.3681641-.0166016-.7683105-.0166016-1.1524658h4.6904297v3.6174316c0,.2561035.0957031.3201904.4003906.3201904.4160156,0,.4482422-.0960693.4482422-.9764404v-.8323975l1.2480469.7683105c-.0800781,2.0649414-.3515625,2.4810791-1.4560547,2.4810791h-.7050781Z"/>
        <path class="cls-1" d="m193.8407362,63.0573797v-1.3125h6.8662109v1.3125h-6.8662109Zm2.0488281,9.8120117v.6082764h-1.5693359v-4.9780273h5.9228516v4.369751h-4.3535156Zm-1.3447266-12.1329346v-1.2004395h5.4580078v1.2004395h-5.4580078Zm0,6.7227783v-1.2005615h5.4580078v1.2005615h-5.4580078Zm.015625-2.1928711v-1.2005615h5.4423828v1.2005615h-5.4423828Zm4.1132812,4.5137939h-2.7841797v1.7286377h2.7841797v-1.7286377Zm5.2021484,3.713501v-8.451416h-2.9130859v-1.3765869h2.9130859v-4.5938721h1.6015625v4.5938721h2.7685547v1.3765869h-2.7685547v8.451416h-1.6015625Z"/>
      </g>
      <line class="cls-3" y1="47.4151235" x2="249.5757853" y2="47.4151235"/>
      <rect class="cls-2" x=".0004184" width="988.2607855" height="75.3979456"/>
    </g>
  </g>
</svg>