<?xml version="1.0" encoding="UTF-8"?>
<svg id="_レイヤー_2" data-name="レイヤー 2" xmlns="http://www.w3.org/2000/svg" viewBox="0 0 76.9309082 33.6844482">
  <defs>
    <style>
      .cls-1 {
        stroke-width: 0px;
      }
    </style>
  </defs>
  <g id="_レイヤー_1-2" data-name="レイヤー 1">
    <g>
      <g>
        <path class="cls-1" d="m14.9470215,16.204834c-2.0390625-.2340088-4.8581543-1.0441895-4.8581543-1.0441895l1.0283203-1.1523438h-6.2233887l.9396973,1.1342773s-2.4467773.7922363-4.7341309,1.0622559l-1.0993652-1.5303955c2.8547363-.1619873,4.4682617-.6661377,4.4682617-.6661377H1.8793945v-7.616333h4.0605469l-.6738281-1.3323975s3.5639648-.2700195,4.3972168-2.6108398h-1.3652344c-.9753418.774292-1.8439941,1.2243652-1.8439941,1.2243652l-1.2058105-1.3322754s2.1455078-.6843262,3.2092285-2.3408203l1.666748.3781738c-.088623.1800537-.3901367.5581055-.5141602.6842041h6.0107422v1.1343994s-.4609375,1.1342773-1.489502,2.0345459l-1.3474121-.9002686c.7978516-.5761719,1.010498-.8823242,1.010498-.8823242h-2.2695312v.0540771c.2307129.4681396,1.1704102,2.0166016,4.4150391,2.4847412l-.9396973,1.6025391c-2.3049316-.4862061-3.6525879-1.890625-4.2731934-2.8989258-.921875,1.3684082-2.6418457,2.376709-3.6879883,2.7008057h6.9682617v7.616333h-2.4291992s1.6313477.4321289,4.3796387.684082l-1.0107422,1.5124512ZM5.407959,4.3212891C3.2802734,5.6538086.9753418,6.3919678.9753418,6.3919678l-.6738281-1.6204834s2.5178223-.7202148,4.6630859-1.9805908l.4433594,1.5303955Zm-1.3830566-1.4763184s-1.2766113-.5761719-3.2624512-1.2424316L1.578125.144043c1.8439941.7022705,3.1914062,1.3504639,3.1914062,1.3504639l-.7446289,1.3504639Zm8.2094727,4.7893066H3.6525879v.918335h8.5817871v-.918335Zm0,1.9986572H3.6525879v.97229h8.5817871v-.97229Zm0,2.0526123H3.6525879v1.0622559h8.5817871v-1.0622559Z"/>
        <path class="cls-1" d="m23.1872559,16.204834v-7.5622559s-.7624512,3.0969238-2.0568848,4.8615723l-1.170166-1.7285156c1.4716797-1.5124512,2.3935547-3.4931641,2.8547363-4.7895508h-2.5532227v-1.5664062h2.9255371V0h1.6843262v5.4196777h2.6240234v1.5664062h-2.2695312c.9575195,1.3504639,2.2873535,2.1967773,2.2873535,2.1967773l-1.170166,1.602417s-.9221191-1.3143311-1.4716797-2.7368164v8.1563721h-1.6843262Zm-1.7731934-11.3613281c-.4433594-1.7645264-1.0461426-3.0068359-1.0461426-3.0068359l1.4362793-.6481934s.6027832,1.4223633,1.0283203,3.0788574l-1.418457.5761719Zm3.581543-.6662598s.6916504-1.4943848.9575195-2.9887695l1.5249023.5220947c-.3723145,1.5665283-1.1171875,3.1689453-1.1171875,3.1689453l-1.3652344-.7022705Zm7.6064453,12.0275879v-5.2575684l-5.1772461,1.0444336-.3015137-1.6745605,5.4787598-1.116333V0h1.737793v8.8586426l1.2412109-.2519531.3190918,1.6744385-1.5603027.3240967v5.5996094h-1.737793Zm-1.8969727-7.5802002c-1.2412109-1.4764404-2.748291-2.5028076-2.748291-2.5028076l1.0283203-1.2062988s1.5249023,1.1704102,2.7658691,2.5026855l-1.0458984,1.2064209Zm.2658691-3.7630615c-1.2412109-1.3864746-2.748291-2.520752-2.748291-2.520752l1.0461426-1.1884766s1.5957031,1.2243652,2.7836914,2.520752l-1.081543,1.1884766Z"/>
        <path class="cls-1" d="m39.8847656,4.4473877v-1.4404297h6.4541016v1.4404297h-6.4541016Zm2.2695312,11.0733643v.684082h-1.6665039v-5.6716309h5.3369141v4.9875488h-3.6704102Zm-1.4892578-13.6481934V.5222168h4.8935547v1.3503418h-4.8935547Zm0,7.4902344v-1.3143311h4.8935547v1.3143311h-4.8935547Zm.0175781-2.4306641v-1.3144531h4.8759766v1.3144531h-4.8759766Zm3.4753418,5.0054932h-2.0036621v2.0526123h2.0036621v-2.0526123Zm2.340332-5.1855469v-1.3504639h3.7766113v-1.0622559h-2.9963379v-1.2062988h2.9963379v-.9724121h-3.510498V.8642578h3.510498v-.8642578h1.737793v.8642578h3.421875v1.2963867h-3.421875v.9724121h2.9963379v1.2062988h-2.9963379v1.0622559h3.829834v1.3504639h-9.3442383Zm5.1420898,7.8323975c1.5778809,0,1.8972168-.144043,1.8972168-.5942383v-.6121826h-4.7165527v2.8267822h-1.666748V7.6342773h8.0498047v6.355957c0,1.890625-1.081543,2.1066895-2.8544922,2.2145996l-.7092285-1.6203613Zm1.8972168-5.6176758h-4.7165527v1.0083008h4.7165527v-1.0083008Zm0,2.1785889h-4.7165527v1.0623779h4.7165527v-1.0623779Z"/>
        <path class="cls-1" d="m60.0043945,13.1799316c3.7412109-1.9084473,5.5498047-4.5552979,5.5498047-4.5552979l1.1347656,1.2243652s-1.8439941,2.7908936-5.5141602,4.8614502l-1.1704102-1.5305176Zm14.645752,1.4224854c-3.2802734-2.2147217-4.8937988-4.5013428-5.9221191-6.1578369v5.3835449c0,1.5124512-.6560059,2.3046875-3.3688965,2.3046875l-.7092285-1.7644043c2.3227539,0,2.3405762-.2521973,2.3405762-.9724121V4.3753662h-6.4187012v-1.6204834h6.4187012V0h1.7375488v2.7548828h3.6171875c-.8688965-.8642578-1.9858398-1.6745605-1.9858398-1.6745605l1.3828125-1.0262451s1.1525879.9002686,2.2519531,1.8905029l-1.1525879.8103027h2.251709v1.6204834h-6.3652344v1.3504639c.2658691.486084.7802734,1.2963867,1.5249023,2.3046875,1.0461426-.6662598,1.9147949-1.692627,2.6240234-2.7908936l1.6135254,1.1883545c-.8864746,1.2062988-2.0566406,2.3046875-3.1206055,2.9888916,1.1525879,1.1523438,2.3759766,2.088623,4.3796387,3.151001l-1.0993652,2.0345459Zm-10.904541-5.6717529c-1.1879883-1.6203613-2.5175781-2.8808594-2.5175781-2.8808594l1.3652344-1.0262451s1.2941895,1.1883545,2.4821777,2.7008057l-1.329834,1.2062988Z"/>
      </g>
      <g>
        <path class="cls-1" d="m6.6848145,31.7794189l-2.3864746-4.5524902H1.8154297v4.5524902H.2705078v-10.9259033h4.1381836c2.0002441,0,3.4208984,1.0926514,3.4208984,3.067627,0,1.8210449-.8828125,2.7175293-2.013916,3.0537109l2.7172852,4.8045654h-1.8481445Zm-2.5244141-5.8271484c1.2414551,0,2.0830078-.6583252,2.0830078-1.9750977,0-1.1766357-.9243164-1.7789307-2.0966797-1.7789307H1.8293457v3.7540283h2.3310547Z"/>
        <path class="cls-1" d="m11.9758301,31.7794189v-10.9259033h7.0761719v1.3587646h-5.4897461v3.2636719h4.8139648v1.3308105h-4.8139648v3.5998535h5.7519531v1.3728027h-7.3383789Z"/>
        <path class="cls-1" d="m30.2888184,33.6844482c-.6621094-.40625-1.5170898-1.1766357-2.1379395-1.8630371-.248291.0841064-.6896973.1540527-1.0759277.1540527-2.9794922,0-4.7175293-2.479248-4.7175293-5.7010498,0-3.1796875,1.7380371-5.6729736,4.7175293-5.6729736,2.9931641,0,4.7175293,2.5073242,4.7175293,5.6729736,0,2.1431885-.8000488,4.0062256-2.2346191,4.9587402.5654297.5743408,1.3378906,1.1485596,2.2070312,1.6387939l-1.4760742.8125Zm-.0688477-7.4100342c0-2.5773926-1.2553711-4.3282471-3.1450195-4.3282471-1.8344727,0-3.1450195,1.7508545-3.1450195,4.3282471,0,2.5633545,1.269043,4.3283691,3.1450195,4.3283691,1.8483887,0,3.1450195-1.7650146,3.1450195-4.3283691Z"/>
        <path class="cls-1" d="m42.0075684,20.8535156h1.5449219v7.368042c0,2.3952637-1.6967773,3.8100586-4.027832,3.8100586-2.4001465,0-4.0554199-1.428833-4.0554199-3.8100586v-7.368042h1.6000977v7.2138672c0,1.6668701.9240723,2.5773926,2.4553223,2.5773926,1.517334,0,2.4829102-.8964844,2.4829102-2.5773926v-7.2138672Z"/>
        <path class="cls-1" d="m47.9465332,31.7794189v-10.9259033h7.0761719v1.3587646h-5.4897461v3.2636719h4.8139648v1.3308105h-4.8139648v3.5998535h5.7519531v1.3728027h-7.3383789Z"/>
        <path class="cls-1" d="m61.1008301,26.4425049c-1.6965332-.616333-2.4277344-1.3726807-2.4277344-2.8575439,0-1.6248779,1.3520508-2.9835205,3.5039062-2.9835205,1.8481445,0,3.0483398.6862793,3.6276855,2.1850586l-1.1999512.8685303c-.4001465-1.1625977-1.2416992-1.7088623-2.3725586-1.7088623-1.269043,0-2.027832.7143555-2.027832,1.5688477,0,.7143555.4414062,1.1905518,1.5725098,1.5688477l1.6140137.5322266c1.737793.6022949,2.730957,1.4987793,2.730957,3.1657715,0,2.0170898-1.3654785,3.2497559-3.8071289,3.2497559-2.0827637,0-3.4897461-1.1346436-4.0415039-2.8295898l1.2001953-.8125c.4550781,1.3167725,1.5585938,2.2412109,2.8276367,2.2412109,1.3930664,0,2.2207031-.7003174,2.2207031-1.6948242,0-.9525146-.5791016-1.4987793-1.8620605-1.9470215l-1.5588379-.5463867Z"/>
        <path class="cls-1" d="m72.1306152,31.7794189v-9.5532227h-3.1862793v-1.3726807h7.9865723v1.3726807h-3.1862793v9.5532227h-1.6140137Z"/>
      </g>
    </g>
  </g>
</svg>