<?xml version="1.0" encoding="UTF-8"?>
<svg id="_レイヤー_2" data-name="レイヤー 2" xmlns="http://www.w3.org/2000/svg" viewBox="0 0 75.8076172 32.0316162">
  <defs>
    <style>
      .cls-1 {
        fill: #fff;
        stroke-width: 0px;
      }
    </style>
  </defs>
  <g id="_レイヤー_1-2" data-name="レイヤー 1">
    <g>
      <g>
        <path class="cls-1" d="m10.6384277,15.8988037s-1.5957031-.0179443-1.5957031-1.602417v-3.5831299h-2.1276855c-.159668.7922363-.9929199,4.5194092-5.8867188,5.4915771l-1.0283203-1.7104492c3.7944336-.630127,4.7341309-2.5567627,4.9645996-3.7811279H1.9150391V.6662598h12.3581543v10.0469971h-3.4396973v2.9708252c0,.5761719.496582.630249.6560059.630249h1.4362793c.5141602,0,.9929199-.0360107,1.2766113-2.232666l1.7553711.97229c-.6916504,2.8448486-1.5070801,2.8448486-2.411377,2.8448486h-2.907959Zm1.8439941-13.7921143H3.7058105v1.3684082h8.7766113v-1.3684082Zm0,2.7368164H3.7058105v1.4404297h8.7766113v-1.4404297Zm0,2.8088379H3.7058105v1.6204834h8.7766113v-1.6204834Z"/>
        <path class="cls-1" d="m33.7900391,6.9501953v-2.088623h-11.7553711v2.1065674h-1.7375488v-3.7271729h2.4467773s-.6027832-.9902344-1.5603027-2.1065674l1.5957031-1.0083008c1.0639648,1.3504639,1.578125,2.2686768,1.578125,2.2686768l-1.2944336.8461914h4.0249023s-.5495605-.972168-1.5603027-2.1606445l1.6135254-.972168c1.0283203,1.3143311,1.5603027,2.2685547,1.5603027,2.2685547l-1.4362793.8642578h3.3510742s1.329834-1.74646,1.8972168-3.0788574l1.7907715.8461914c-.4609375.7922363-1.081543,1.6564941-1.5600586,2.232666h2.7836914v3.7092285h-1.737793Zm-4.503418,5.1314697v1.6564941c0,2.1785889-1.3830566,2.3587646-3.5461426,2.4307861l-.7092285-1.7105713h1.1523438c.9575195,0,1.3652344-.0720215,1.3652344-.7202148v-1.6564941h-7.1984863v-1.6204834h7.1984863v-1.3684082h.9399414c.9750977-.4321289,1.8615723-1.1523438,1.8615723-1.1523438h-7.3227539v-1.6204834h9.7519531v1.5665283s-1.2944336,1.4404297-3.5107422,2.520752v.0539551h6.2412109v1.6204834h-6.2233887Z"/>
        <path class="cls-1" d="m50.6828613,11.2714844s2.0744629-1.3864746,2.9787598-3.5111084h-4.4682617v5.5997314c0,1.7824707-.5141602,2.7727051-4.6098633,2.7727051l-.8864746-1.74646c3.2446289,0,3.6523438-.0540771,3.6523438-.97229v-5.6536865h-7.3759766v-1.6204834h7.6953125c-1.329834-1.2243652-2.9611816-2.3227539-2.9611816-2.3227539l1.2590332-1.1162109s1.0637207.7021484,1.9680176,1.4042969c1.8793945-.8822021,3.1027832-1.9625244,3.1027832-1.9625244h-9.1843262V.5761719h11.8261719v1.5305176s-2.003418,1.9085693-4.3969727,3.0969238l.5673828.4681396-.5498047.4681396h6.2590332v1.4044189c-.7978516,2.7188721-3.4575195,5.0235596-3.4575195,5.0235596l-1.418457-1.2963867Z"/>
        <path class="cls-1" d="m59.8271484,15.0166016c.7092285-2.1787109,1.0639648-4.5914307,1.0639648-4.5914307l1.418457.1981201s-.4433594,3.204834-.9575195,4.8974609l-1.5249023-.5041504Zm2.907959,1.1882324v-6.6618652c-1.4362793.0358887-2.659668.0358887-2.659668.0358887l-.2304688-1.6203613s.4963379.0179443,1.2587891.0179443c.5673828-.5941162,1.081543-1.1702881,1.5603027-1.7645264-.6738281-.7021484-1.7907715-1.6384277-2.7658691-2.3227539l1.010498-1.3503418c.1950684.1621094.3901367.3061523.5673828.4681396.496582-.6481934,1.2236328-1.7105713,1.7553711-2.9528809l1.578125.7381592c-.6560059,1.1704102-1.6135254,2.5568848-2.1987305,3.2590332.3369141.3061523.6738281.630127.9221191.9002686.9929199-1.3323975,1.5424805-2.3946533,1.5424805-2.3946533l1.5427246.8642578s-1.737793,2.6647949-3.6171875,4.5913086c.5319824,0,1.7199707-.0360107,2.1987305-.0720215-.1418457-.3061523-.407959-.7741699-.407959-.7741699l1.3652344-.5942383c.8510742,1.5305176,1.5070801,3.1870117,1.5070801,3.1870117l-1.5246582.6120605s-.088623-.4500732-.3015137-1.0083008c-.3369141.0361328-1.0107422.0720215-1.4538574.0900879v6.7519531h-1.6489258Zm2.9431152-1.1162109s-.2658691-2.034668-.7446289-4.0512695l1.3652344-.3601074c.5498047,2.1966553.9929199,4.0512695.9929199,4.0512695l-1.6135254.3601074Zm3.9716797-.774292c3.7768555-.0720215,3.8654785-.0179443,3.8654785-9.2907715v-1.2963867h-4.1491699c-.5495605,1.0623779-1.2763672,2.1246338-2.1806641,2.9888916l-1.1704102-1.4764404c2.1809082-1.9445801,2.8369141-5.239624,2.8369141-5.239624l1.7910156.1981201s-.1774902.8101807-.5673828,1.9085693h5.1772461c0,12.6757812-.0178223,13.6120605-4.7873535,13.9361572l-.8156738-1.7285156Zm.7094727-3.151001c-.9399414-2.3405762-1.9682617-3.835083-1.9682617-3.835083l1.4716797-.8282471s.9575195,1.5305176,2.0390625,3.8710938l-1.5424805.7922363Z"/>
      </g>
      <g>
        <path class="cls-1" d="m7.463623,31.779541l-2.3864746-4.5524902h-2.4829102v4.5524902h-1.5449219v-10.9259033h4.1381836c2.0002441,0,3.4208984,1.0925293,3.4208984,3.067627,0,1.8210449-.8828125,2.7175293-2.013916,3.0537109l2.7172852,4.8045654h-1.8481445Zm-2.5244141-5.8271484c1.2414551,0,2.0830078-.6583252,2.0830078-1.9750977,0-1.1766357-.9243164-1.7789307-2.0966797-1.7789307h-2.3173828v3.7540283h2.3310547Z"/>
        <path class="cls-1" d="m12.7546387,31.779541v-10.9259033h7.0761719v1.3587646h-5.4897461v3.2637939h4.8139648v1.3306885h-4.8139648v3.5999756h5.7519531v1.3726807h-7.3383789Z"/>
        <path class="cls-1" d="m25.9089355,26.442627c-1.6967773-.616333-2.4277344-1.3726807-2.4277344-2.8575439,0-1.6248779,1.3515625-2.9836426,3.503418-2.9836426,1.8486328,0,3.048584.6864014,3.6279297,2.1853027l-1.2001953.8684082c-.3999023-1.1625977-1.2412109-1.7089844-2.3725586-1.7089844-1.269043,0-2.0275879.7144775-2.0275879,1.5688477,0,.7144775.4414062,1.1906738,1.5725098,1.5688477l1.6137695.5323486c1.7382812.6022949,2.7314453,1.4987793,2.7314453,3.1656494,0,2.0170898-1.3657227,3.2497559-3.8071289,3.2497559-2.0830078,0-3.4899902-1.1345215-4.041748-2.8294678l1.1999512-.8123779c.4553223,1.3166504,1.5588379,2.2412109,2.8278809,2.2412109,1.3933105,0,2.2209473-.7004395,2.2209473-1.6949463,0-.9525146-.5795898-1.4989014-1.8623047-1.9471436l-1.5585938-.5462646Z"/>
        <path class="cls-1" d="m34.8005371,31.779541v-10.9259033h7.0761719v1.3587646h-5.4897461v3.2637939h4.8139648v1.3306885h-4.8139648v3.5999756h5.7519531v1.3726807h-7.3383789Z"/>
        <path class="cls-1" d="m52.0100098,31.779541l-2.3862305-4.5524902h-2.4829102v4.5524902h-1.5449219v-10.9259033h4.1381836c2,0,3.4208984,1.0925293,3.4208984,3.067627,0,1.8210449-.8828125,2.7175293-2.013916,3.0537109l2.7175293,4.8045654h-1.8486328Zm-2.5241699-5.8271484c1.2414551,0,2.0827637-.6583252,2.0827637-1.9750977,0-1.1766357-.9240723-1.7789307-2.0966797-1.7789307h-2.3173828v3.7540283h2.3312988Z"/>
        <path class="cls-1" d="m59.729248,31.779541l-3.5864258-10.9259033h1.7104492l2.5244141,7.7321777c.1516113.5322266.3310547,1.2607422.3723145,1.4287109h.0275879c.0551758-.1679688.2207031-.9104004.3586426-1.4287109l2.510498-7.7321777h1.6552734l-3.5864258,10.9259033h-1.9863281Z"/>
        <path class="cls-1" d="m68.4692383,31.779541v-10.9259033h7.076416v1.3587646h-5.4902344v3.2637939h4.814209v1.3306885h-4.814209v3.5999756h5.7521973v1.3726807h-7.3383789Z"/>
      </g>
    </g>
  </g>
</svg>